# Exported by s4extract — 1_mlod00_g02_part72
o 1_mlod00_g02_part72
v 0.487457 0.825734 -0.057316
v 0.492340 0.823781 -0.066838
v 0.494232 0.827626 -0.049075
v 0.503327 0.826833 -0.053531
v 0.502167 0.824452 -0.064518
vt 0.337124 0.411446
vt 0.353163 0.417278
vt 0.343260 0.402029
vt 0.363066 0.402029
vt 0.369202 0.411446
vn 0.017941 -0.977594 0.209733
vn 0.017540 -0.977582 0.209824
vn 0.017659 -0.977593 0.209763
vn 0.017387 -0.977577 0.209859
vn 0.017228 -0.977553 0.209985
f 1/1/1 2/2/2 3/3/3
f 3/3/3 2/2/2 4/4/4
f 4/4/4 2/2/2 5/5/5
