# Exported by s4extract — 1_mlod00_g01_part251
o 1_mlod00_g01_part251
v 0.493255 0.753952 -0.009827
v 0.506073 0.767076 -0.009034
v 0.503571 0.767076 -0.017518
v 0.503266 0.753952 0.003357
v 0.494354 0.753952 -0.026308
v 0.488189 0.734420 -0.008301
v 0.514802 0.767076 -0.007019
v 0.509675 0.767076 -0.023988
v 0.518525 0.753952 0.005493
v 0.501190 0.734420 0.009400
v 0.505890 0.753952 -0.036501
v 0.489288 0.734420 -0.030214
v 0.502411 0.715132 0.007386
v 0.491363 0.715132 -0.029177
v 0.490508 0.715132 -0.008973
v 0.520662 0.734420 0.012452
v 0.519990 0.715132 0.010316
v 0.503815 0.734420 -0.043521
v 0.504425 0.715132 -0.041384
vt 0.188704 0.161214
vt 0.191871 0.171809
vt 0.185507 0.171778
vt 0.197716 0.162096
vt 0.179662 0.162096
vt 0.188704 0.150527
vt 0.197412 0.174579
vt 0.179936 0.174549
vt 0.206454 0.165628
vt 0.200517 0.151045
vt 0.170924 0.165598
vt 0.176891 0.151045
vt 0.201278 0.139871
vt 0.176160 0.139871
vt 0.188704 0.139871
vt 0.212178 0.152963
vt 0.212178 0.139871
vt 0.165261 0.152932
vt 0.165261 0.139871
vn -0.847694 0.465626 0.254181
vn -0.549467 0.674695 0.492821
vn -0.729703 0.675004 -0.109101
vn -0.525990 0.453273 0.719637
vn -0.835380 0.453673 -0.310357
vn -0.955222 0.070346 0.287406
vn -0.124911 0.680619 0.721911
vn -0.502808 0.681076 -0.532277
vn -0.132340 0.417967 0.898771
vn -0.427791 0.101557 0.898154
vn -0.606559 0.418738 -0.675829
vn -0.852379 0.102628 -0.512754
vn -0.651817 -0.121251 0.748621
vn -0.956852 -0.120352 -0.264478
vn -0.949839 -0.124212 0.287013
vn -0.153802 0.116082 0.981259
vn -0.158456 -0.107856 0.981457
vn -0.670771 0.117427 -0.732310
vn -0.675052 -0.107057 -0.729961
f 1/1/1 2/2/2 3/3/3
f 1/1/1 4/4/4 2/2/2
f 1/1/1 3/3/3 5/5/5
f 1/1/1 5/5/5 6/6/6
f 1/1/1 6/6/6 4/4/4
f 2/2/2 4/4/4 7/7/7
f 3/3/3 8/8/8 5/5/5
f 7/7/7 4/4/4 9/9/9
f 4/4/4 10/10/10 9/9/9
f 4/4/4 6/6/6 10/10/10
f 5/5/5 8/8/8 11/11/11
f 5/5/5 11/11/11 12/12/12
f 6/6/6 5/5/5 12/12/12
f 10/10/10 6/6/6 13/13/13
f 12/12/12 14/14/14 6/6/6
f 6/6/6 14/14/14 15/15/15
f 13/13/13 6/6/6 15/15/15
f 9/9/9 10/10/10 16/16/16
f 16/16/16 10/10/10 17/17/17
f 17/17/17 10/10/10 13/13/13
f 12/12/12 11/11/11 18/18/18
f 18/18/18 19/19/19 12/12/12
f 12/12/12 19/19/19 14/14/14
