# Exported by s4extract — 1_mlod00_g01_part15
o 1_mlod00_g01_part15
v 0.508271 0.733687 0.083501
v 0.508271 0.718550 0.083501
v 0.525545 0.733687 0.075749
v 0.525545 0.718550 0.075749
v 0.532992 0.733687 0.058964
v 0.532992 0.718550 0.058964
vt 0.059126 0.037359
vt 0.059126 0.046341
vt 0.047892 0.037359
vt 0.047892 0.046341
vt 0.037022 0.037359
vt 0.037022 0.046341
vn 0.409426 0.000000 0.912343
vn 0.409426 0.000000 0.912343
vn 0.609544 0.000000 0.792752
vn 0.789101 0.000000 0.614263
vn 0.914085 0.000000 0.405522
vn 0.914085 0.000000 0.405522
f 1/1/1 2/2/2 3/3/3
f 3/3/3 2/2/2 4/4/4
f 3/3/3 4/4/4 5/5/5
f 5/5/5 4/4/4 6/6/6
