# Exported by s4extract — 1_mlod00_g01_part27
o 1_mlod00_g01_part27
v 0.435940 0.868156 0.062687
v 0.436611 0.892877 0.062931
v 0.438503 0.889947 0.054080
v 0.434292 0.870659 0.070073
v 0.409937 0.722578 0.113899
v 0.411890 0.719648 0.105109
vt 0.198325 0.283911
vt 0.201217 0.296485
vt 0.198325 0.296485
vt 0.201217 0.283911
vt 0.201217 0.242108
vt 0.198325 0.242108
vn -0.967222 0.079067 -0.241307
vn -0.974603 0.028664 -0.222098
vn -0.975519 0.028649 -0.218043
vn -0.966942 0.078879 -0.242491
vn -0.965863 0.086636 -0.244138
vn -0.965978 0.086842 -0.243609
f 1/1/1 2/2/2 3/3/3
f 4/4/4 2/2/2 1/1/1
f 1/1/1 5/5/5 4/4/4
f 6/6/6 5/5/5 1/1/1
