# Exported by s4extract — 1_mlod00_g01_part121
o 1_mlod00_g01_part121
v 0.196545 0.620582 -0.034487
v 0.233169 0.620582 0.021730
v 0.196545 0.620582 0.021730
v 0.233169 0.620582 -0.034487
v 0.271013 0.620582 -0.034487
v 0.271013 0.620582 0.021730
vt 0.287836 0.722089
vt 0.269569 0.693988
vt 0.287836 0.693988
vt 0.269569 0.722089
vt 0.250631 0.722089
vt 0.250631 0.693988
vn 0.000000 -1.000000 0.000000
vn 0.000000 -1.000000 0.000000
vn 0.000000 -1.000000 0.000000
vn 0.000000 -1.000000 0.000000
vn 0.000000 -1.000000 0.000000
vn 0.000000 -1.000000 0.000000
f 1/1/1 2/2/2 3/3/3
f 4/4/4 2/2/2 1/1/1
f 5/5/5 2/2/2 4/4/4
f 6/6/6 2/2/2 5/5/5
