# Exported by s4extract — 1_mlod00_g01_part52
o 1_mlod00_g01_part52
v 0.444912 0.742965 -0.040835
v 0.450040 0.742965 -0.052799
v 0.444912 0.716780 -0.040835
v 0.450040 0.716780 -0.052799
v 0.462125 0.742965 -0.057621
v 0.462125 0.716780 -0.057621
vt 0.025514 0.021345
vt 0.017293 0.021345
vt 0.025514 0.003412
vt 0.017293 0.003412
vt 0.009042 0.021345
vt 0.009042 0.003412
vn -0.919145 0.000000 -0.393919
vn -0.789623 0.000000 -0.613592
vn -0.919145 0.000000 -0.393919
vn -0.593542 0.000000 -0.804803
vn -0.370582 0.000000 -0.928800
vn -0.370582 0.000000 -0.928800
f 1/1/1 2/2/2 3/3/3
f 3/3/3 2/2/2 4/4/4
f 2/2/2 5/5/5 4/4/4
f 4/4/4 5/5/5 6/6/6
