# Exported by s4extract — 1_mlod00_g01_part140
o 1_mlod00_g01_part140
v 0.233169 0.652628 0.153269
v 0.233169 0.638650 0.144601
v 0.271013 0.652628 0.153269
v 0.271013 0.638650 0.144601
v 0.233169 0.631569 0.130806
v 0.271013 0.631569 0.130806
v 0.271013 0.631569 0.021730
v 0.233169 0.631569 0.021730
vt 0.336854 0.440921
vt 0.336854 0.448897
vt 0.317917 0.440921
vt 0.317917 0.448897
vt 0.336854 0.457453
vt 0.317917 0.457453
vt 0.317917 0.511951
vt 0.336854 0.511951
vn 0.000000 -0.526993 0.849869
vn 0.000000 -0.664202 0.747553
vn 0.000000 -0.526993 0.849869
vn 0.000000 -0.789996 0.613112
vn 0.000000 -0.998344 0.057530
vn 0.000000 -0.998344 0.057530
vn 0.000000 -1.000000 0.000000
vn 0.000000 -1.000000 0.000000
f 1/1/1 2/2/2 3/3/3
f 3/3/3 2/2/2 4/4/4
f 2/2/2 5/5/5 4/4/4
f 4/4/4 5/5/5 6/6/6
f 6/6/6 5/5/5 7/7/7
f 7/7/7 5/5/5 8/8/8
