# Exported by s4extract — 1_mlod00_g01_part224
o 1_mlod00_g01_part224
v 0.310688 0.511201 -0.146432
v 0.348532 0.516084 -0.149179
v 0.310688 0.516084 -0.149179
v 0.348532 0.511201 -0.146432
v 0.310688 0.507172 -0.141671
v 0.348532 0.507172 -0.141671
v 0.310688 0.507172 0.130806
v 0.348532 0.507172 0.130806
v 0.310688 0.511201 0.135506
v 0.348532 0.511201 0.135506
v 0.310688 0.516084 0.138253
v 0.348532 0.516084 0.138253
vt 0.767482 0.497185
vt 0.786450 0.503792
vt 0.767482 0.503792
vt 0.786450 0.497185
vt 0.767482 0.490274
vt 0.786450 0.490274
vt 0.767482 0.354058
vt 0.786450 0.354058
vt 0.767482 0.347147
vt 0.786450 0.347147
vt 0.767482 0.340571
vt 0.786450 0.340571
vn 0.000000 0.596585 0.802550
vn 0.000000 0.490261 0.871576
vn 0.000000 0.490261 0.871576
vn 0.000000 0.688029 0.725683
vn 0.000000 0.999592 0.028560
vn 0.000000 0.999973 0.007328
vn 0.000000 0.999973 -0.007329
vn 0.000000 0.999592 -0.028572
vn 0.000000 0.684399 -0.729108
vn 0.000000 0.594291 -0.804250
vn 0.000000 0.490261 -0.871576
vn 0.000000 0.490261 -0.871576
f 1/1/1 2/2/2 3/3/3
f 4/4/4 2/2/2 1/1/1
f 1/1/1 5/5/5 4/4/4
f 4/4/4 5/5/5 6/6/6
f 7/7/7 6/6/6 5/5/5
f 8/8/8 6/6/6 7/7/7
f 9/9/9 8/8/8 7/7/7
f 10/10/10 8/8/8 9/9/9
f 9/9/9 11/11/11 10/10/10
f 10/10/10 11/11/11 12/12/12
