# Exported by s4extract — 1_mlod00_g01_part34
o 1_mlod00_g01_part34
v 0.367637 0.859061 0.060978
v 0.356467 0.884148 0.068974
v 0.361350 0.881340 0.052677
v 0.363792 0.860770 0.074773
v 0.379601 0.731002 0.087652
v 0.376122 0.728682 0.103522
vt 0.197351 0.220766
vt 0.203044 0.233827
vt 0.197259 0.233919
vt 0.203044 0.220340
vt 0.197747 0.181643
vt 0.202953 0.179846
vn -0.949777 -0.200372 -0.240365
vn -0.915831 -0.339343 -0.214711
vn -0.915703 -0.338880 -0.215984
vn -0.958334 -0.157648 -0.238209
vn -0.960489 -0.140836 -0.240056
vn -0.962661 -0.140256 -0.231544
f 1/1/1 2/2/2 3/3/3
f 4/4/4 2/2/2 1/1/1
f 5/5/5 4/4/4 1/1/1
f 6/6/6 4/4/4 5/5/5
