# Exported by s4extract — 1_mlod00_g01_part98
o 1_mlod00_g01_part98
v -0.147836 0.000000 -0.147836
v -0.104560 0.000000 -0.181041
v -0.054080 0.000000 -0.201917
v -0.181041 0.000000 -0.104560
v -0.201917 0.000000 -0.054080
v -0.209058 0.000000 0.000000
v -0.201917 0.000000 0.054080
v -0.181041 0.000000 0.104560
v -0.147836 0.000000 0.147836
v -0.104560 0.000000 0.181041
v -0.054080 0.000000 0.201917
v 0.000000 0.000000 0.209058
v 0.054080 0.000000 0.201917
v 0.104560 0.000000 0.181041
v 0.147836 0.000000 0.147836
v 0.181041 0.000000 0.104560
v 0.201917 0.000000 0.054080
v 0.209058 0.000000 0.000000
v 0.201917 0.000000 -0.054080
v 0.181041 0.000000 -0.104560
v 0.147836 0.000000 -0.147836
v 0.104560 0.000000 -0.181041
v 0.054080 0.000000 -0.201917
v 0.000000 0.000000 -0.209058
vt 0.767330 0.689542
vt 0.763889 0.690364
vt 0.760358 0.690273
vt 0.770435 0.687898
vt 0.772993 0.685463
vt 0.774850 0.682449
vt 0.775855 0.679069
vt 0.775976 0.675568
vt 0.775154 0.672127
vt 0.773480 0.669022
vt 0.771075 0.666434
vt 0.768060 0.664607
vt 0.764681 0.663572
vt 0.761149 0.663481
vt 0.757709 0.664272
vt 0.754603 0.665947
vt 0.752046 0.668382
vt 0.750189 0.671366
vt 0.749184 0.674746
vt 0.749062 0.678277
vt 0.749884 0.681718
vt 0.751559 0.684823
vt 0.753964 0.687381
vt 0.756978 0.689238
vn 0.000000 -1.000000 0.000000
vn 0.000000 -1.000000 0.000000
vn 0.000000 -1.000000 0.000000
vn 0.000000 -1.000000 0.000000
vn 0.000000 -1.000000 0.000000
vn 0.000000 -1.000000 0.000000
vn 0.000000 -1.000000 0.000000
vn 0.000000 -1.000000 0.000000
vn 0.000000 -1.000000 0.000000
vn 0.000000 -1.000000 0.000000
vn 0.000000 -1.000000 0.000000
vn 0.000000 -1.000000 0.000000
vn 0.000000 -1.000000 0.000000
vn 0.000000 -1.000000 0.000000
vn 0.000000 -1.000000 0.000000
vn 0.000000 -1.000000 0.000000
vn 0.000000 -1.000000 0.000000
vn 0.000000 -1.000000 0.000000
vn 0.000000 -1.000000 0.000000
vn 0.000000 -1.000000 0.000000
vn 0.000000 -1.000000 0.000000
vn 0.000000 -1.000000 0.000000
vn 0.000000 -1.000000 0.000000
vn 0.000000 -1.000000 0.000000
f 1/1/1 2/2/2 3/3/3
f 4/4/4 1/1/1 3/3/3
f 5/5/5 4/4/4 3/3/3
f 6/6/6 5/5/5 3/3/3
f 7/7/7 6/6/6 3/3/3
f 8/8/8 7/7/7 3/3/3
f 9/9/9 8/8/8 3/3/3
f 10/10/10 9/9/9 3/3/3
f 11/11/11 10/10/10 3/3/3
f 12/12/12 11/11/11 3/3/3
f 13/13/13 12/12/12 3/3/3
f 14/14/14 13/13/13 3/3/3
f 15/15/15 14/14/14 3/3/3
f 16/16/16 15/15/15 3/3/3
f 17/17/17 16/16/16 3/3/3
f 18/18/18 17/17/17 3/3/3
f 19/19/19 18/18/18 3/3/3
f 20/20/20 19/19/19 3/3/3
f 21/21/21 20/20/20 3/3/3
f 22/22/22 21/21/21 3/3/3
f 23/23/23 22/22/22 3/3/3
f 24/24/24 23/23/23 3/3/3
