# Exported by s4extract — 1_mlod00_g02_part13
o 1_mlod00_g02_part13
v 0.447476 1.505341 0.268571
v 0.474821 1.501373 0.210767
v 0.458402 1.513520 0.236648
v 0.447415 1.480864 0.290728
v 0.491119 1.475066 0.197888
v 0.456937 1.449368 0.297626
v 0.473418 1.422694 0.284685
v 0.500763 1.443386 0.204724
v 0.489837 1.410609 0.258683
v 0.500763 1.418910 0.226759
vt 0.079983 0.992831
vt 0.178860 0.976792
vt 0.134631 0.992831
vt 0.035784 0.976792
vt 0.195749 0.950789
vt 0.018894 0.950789
vt 0.035784 0.924817
vt 0.178860 0.924817
vt 0.079983 0.908748
vt 0.134631 0.908748
vn 0.857622 0.344225 0.382091
vn 0.857608 0.344189 0.382155
vn 0.857312 0.345236 0.381875
vn 0.857768 0.343633 0.382297
vn 0.857681 0.343761 0.382376
vn 0.857676 0.343656 0.382483
vn 0.857670 0.343786 0.382379
vn 0.857737 0.343649 0.382351
vn 0.857688 0.343672 0.382441
vn 0.857011 0.344769 0.382970
f 1/1/1 2/2/2 3/3/3
f 4/4/4 2/2/2 1/1/1
f 4/4/4 5/5/5 2/2/2
f 6/6/6 5/5/5 4/4/4
f 6/6/6 7/7/7 5/5/5
f 5/5/5 7/7/7 8/8/8
f 7/7/7 9/9/9 8/8/8
f 8/8/8 9/9/9 10/10/10
