# Exported by s4extract — 1_mlod00_g01_part119
o 1_mlod00_g01_part119
v -0.233169 0.652628 0.153269
v -0.271013 0.652628 0.153269
v -0.233169 0.638650 0.144601
v -0.271013 0.638650 0.144601
v -0.233169 0.631569 0.130806
v -0.271013 0.631569 0.130806
v -0.271013 0.631569 0.021730
v -0.233169 0.631569 0.021730
vt 0.160146 0.440921
vt 0.141208 0.440921
vt 0.160146 0.448897
vt 0.141208 0.448897
vt 0.160146 0.457453
vt 0.141208 0.457453
vt 0.141208 0.511951
vt 0.160146 0.511951
vn 0.000000 -0.526993 0.849869
vn 0.000000 -0.526993 0.849869
vn 0.000000 -0.664202 0.747553
vn 0.000000 -0.789996 0.613112
vn 0.000000 -0.998344 0.057530
vn 0.000000 -0.998344 0.057530
vn 0.000000 -1.000000 0.000000
vn 0.000000 -1.000000 0.000000
f 1/1/1 2/2/2 3/3/3
f 3/3/3 2/2/2 4/4/4
f 3/3/3 4/4/4 5/5/5
f 5/5/5 4/4/4 6/6/6
f 6/6/6 7/7/7 5/5/5
f 5/5/5 7/7/7 8/8/8
