# Exported by s4extract — 1_mlod00_g01_part32
o 1_mlod00_g01_part32
v 0.389855 0.886162 0.060428
v 0.381737 0.859550 0.057254
v 0.378075 0.882378 0.048404
v 0.391870 0.861747 0.067326
v 0.395288 0.735702 0.083684
v 0.407435 0.738143 0.095587
vt 0.220459 0.233705
vt 0.228132 0.220827
vt 0.231085 0.233736
vt 0.220886 0.220705
vt 0.225239 0.182678
vt 0.219485 0.182191
vn 0.721718 -0.139291 -0.678028
vn 0.714553 -0.091929 -0.693515
vn 0.729084 -0.142566 -0.669412
vn 0.708495 -0.077298 -0.701470
vn 0.707949 -0.071984 -0.702585
vn 0.705440 -0.072374 -0.705065
f 1/1/1 2/2/2 3/3/3
f 4/4/4 2/2/2 1/1/1
f 4/4/4 5/5/5 2/2/2
f 6/6/6 5/5/5 4/4/4
