# Exported by s4extract — 1_mlod00_g01_part131
o 1_mlod00_g01_part131
v 0.271013 0.638650 -0.155527
v 0.271013 0.645181 -0.141671
v 0.271013 0.631569 -0.141671
v 0.271013 0.631569 -0.034487
v 0.271013 0.631569 0.021730
v 0.271013 0.645181 0.130806
v 0.271013 0.631569 0.130806
v 0.271013 0.638650 0.144601
vt 0.239579 0.627250
vt 0.248652 0.619121
vt 0.239579 0.619121
vt 0.239579 0.565506
vt 0.239579 0.537404
vt 0.248652 0.482875
vt 0.239579 0.482875
vt 0.239579 0.474746
vn 1.000000 0.000000 0.000000
vn 1.000000 0.000000 0.000000
vn 1.000000 0.000000 0.000000
vn 1.000000 0.000000 0.000000
vn 1.000000 0.000000 0.000000
vn 1.000000 0.000000 0.000000
vn 1.000000 0.000000 0.000000
vn 1.000000 0.000000 0.000000
f 1/1/1 2/2/2 3/3/3
f 4/4/4 3/3/3 2/2/2
f 4/4/4 2/2/2 5/5/5
f 5/5/5 2/2/2 6/6/6
f 5/5/5 6/6/6 7/7/7
f 6/6/6 8/8/8 7/7/7
