# Exported by s4extract — 1_mlod00_g01_part35
o 1_mlod00_g01_part35
v 0.363792 0.860770 0.074773
v 0.368248 0.887933 0.080999
v 0.356467 0.884148 0.068974
v 0.373924 0.862968 0.084844
v 0.376122 0.728682 0.103522
v 0.388329 0.731063 0.115425
vt 0.203044 0.220340
vt 0.208859 0.233705
vt 0.203044 0.233827
vt 0.208798 0.220126
vt 0.202953 0.179846
vt 0.208707 0.179268
vn -0.710384 0.046894 0.702250
vn -0.702798 -0.047407 0.709808
vn -0.706278 -0.046063 0.706434
vn -0.707320 0.075272 0.702874
vn -0.707542 0.085983 0.701421
vn -0.704080 0.086514 0.704831
f 1/1/1 2/2/2 3/3/3
f 4/4/4 2/2/2 1/1/1
f 5/5/5 4/4/4 1/1/1
f 6/6/6 4/4/4 5/5/5
