# Exported by s4extract — 1_mlod00_g01_part186
o 1_mlod00_g01_part186
v 0.310688 0.516084 -0.164195
v 0.348532 0.553806 -0.166758
v 0.348532 0.516084 -0.164195
v 0.310688 0.689007 -0.184765
v 0.348532 0.689007 -0.184765
vt 0.888231 0.339931
vt 0.907138 0.358808
vt 0.907138 0.339931
vt 0.888231 0.426398
vt 0.907138 0.426398
vn 0.041442 -0.109073 -0.993169
vn 0.025229 -0.118085 -0.992683
vn 0.000000 -0.067805 -0.997699
vn 0.028294 -0.124179 -0.991856
vn 0.000000 -0.132017 -0.991247
f 1/1/1 2/2/2 3/3/3
f 4/4/4 2/2/2 1/1/1
f 5/5/5 2/2/2 4/4/4
