# Exported by s4extract — 1_mlod00_g01_part69
o 1_mlod00_g01_part69
v 0.180187 0.633156 0.146982
v 0.167063 0.688397 0.164744
v 0.160410 0.633156 0.158030
v 0.187634 0.688397 0.153208
v 0.199963 0.633156 0.135873
v 0.180187 0.705793 0.146982
v 0.160410 0.705793 0.158030
v 0.000000 0.688397 0.178417
v 0.160410 0.633156 0.158030
v 0.208204 0.688397 0.141671
v 0.199963 0.705793 0.135873
v 0.223341 0.688397 0.097479
v 0.214491 0.633156 0.093451
v 0.160410 0.709516 0.093267
v 0.000000 0.709516 0.113166
v 0.000000 0.705793 0.171092
v 0.000000 0.633156 0.171092
v -0.160410 0.633156 0.158030
v -0.167063 0.688397 0.164744
v -0.160410 0.705793 0.158030
v 0.199963 0.705793 0.135873
v 0.214491 0.705793 0.093451
v 0.214491 0.705793 0.093451
v 0.223341 0.688397 -0.104926
v 0.214491 0.633156 -0.100897
v 0.160837 0.709516 -0.100897
v 0.000000 0.709516 -0.117683
v -0.160410 0.709516 0.093267
v -0.180187 0.705793 0.146982
v -0.187634 0.688397 0.153208
v -0.180187 0.633156 0.146982
v -0.160410 0.633156 0.158030
v 0.214491 0.705793 -0.100897
v 0.214491 0.705793 -0.100897
v 0.180126 0.688397 -0.149301
v 0.172984 0.633156 -0.143502
v 0.138802 0.705793 -0.165660
v 0.172984 0.705793 -0.143502
v -0.160837 0.709516 -0.100897
v 0.000000 0.705793 -0.180553
v -0.138802 0.705793 -0.165660
v -0.199963 0.705793 0.135873
v -0.214491 0.705793 -0.100897
v -0.214491 0.705793 0.093451
v -0.207227 0.705793 0.114692
v -0.208204 0.688397 0.141671
v -0.199963 0.633156 0.135873
v 0.144540 0.688397 -0.172374
v 0.138802 0.633156 -0.165660
v 0.000000 0.688397 -0.187878
v 0.144540 0.688397 -0.172374
v -0.172984 0.705793 -0.143502
v -0.144540 0.688397 -0.172374
v -0.215772 0.688397 0.119575
v -0.207227 0.705793 0.114692
v -0.180126 0.688397 -0.149301
v -0.223341 0.688397 -0.104926
v -0.223341 0.688397 0.097479
v -0.214491 0.705793 0.093451
v -0.207227 0.633156 0.114692
v 0.138802 0.633156 -0.165660
v 0.000000 0.633156 -0.180553
v -0.138802 0.633156 -0.165660
v -0.172984 0.633156 -0.143502
v -0.138802 0.633156 -0.165660
v -0.214491 0.633156 -0.100897
v -0.223341 0.688397 -0.104926
v -0.214491 0.633156 0.093451
vt 0.418693 0.768428
vt 0.446094 0.785082
vt 0.442441 0.753601
vt 0.430415 0.790775
vt 0.394945 0.783286
vt 0.437843 0.800548
vt 0.448895 0.795160
vt 0.538589 0.780637
vt 0.442441 0.753601
vt 0.416288 0.799513
vt 0.426822 0.805968
vt 0.407976 0.826306
vt 0.376678 0.824479
vt 0.448895 0.826793
vt 0.538589 0.817081
vt 0.538589 0.788766
vt 0.529699 0.750404
vt 0.634738 0.753601
vt 0.631906 0.784534
vt 0.628283 0.795160
vt 0.426822 0.805968
vt 0.418663 0.826702
vt 0.418663 0.826702
vt 0.415983 0.926199
vt 0.382188 0.930005
vt 0.454558 0.921754
vt 0.538589 0.929913
vt 0.628283 0.826793
vt 0.639335 0.800548
vt 0.648164 0.790410
vt 0.658485 0.768428
vt 0.634738 0.753601
vt 0.426548 0.921754
vt 0.426548 0.921754
vt 0.432759 0.948973
vt 0.402435 0.967666
vt 0.460982 0.953387
vt 0.441893 0.942548
vt 0.622620 0.921754
vt 0.538589 0.960664
vt 0.616196 0.953387
vt 0.650387 0.805968
vt 0.650630 0.921754
vt 0.658516 0.826702
vt 0.654436 0.816350
vt 0.660891 0.799513
vt 0.682233 0.783286
vt 0.453675 0.960816
vt 0.453340 0.989131
vt 0.538589 0.968793
vt 0.453675 0.960816
vt 0.635316 0.942548
vt 0.623503 0.960816
vt 0.667345 0.812910
vt 0.654436 0.816350
vt 0.644419 0.948973
vt 0.661195 0.926199
vt 0.669233 0.826306
vt 0.658516 0.826702
vt 0.691367 0.803867
vt 0.453340 0.989131
vt 0.538589 0.992267
vt 0.623838 0.989131
vt 0.674774 0.967666
vt 0.623838 0.989131
vt 0.694990 0.930005
vt 0.661195 0.926199
vt 0.700501 0.824479
vn 0.482393 -0.162278 0.860792
vn 0.172197 0.000000 0.985062
vn 0.481206 -0.162656 0.861385
vn 0.489348 0.000000 0.872088
vn 0.828334 -0.179256 0.530782
vn 0.192699 0.919031 0.343873
vn 0.033276 0.954550 0.296189
vn 0.000000 -0.000000 1.000000
vn 0.080674 -0.130427 0.988170
vn 0.841987 0.000000 0.539499
vn 0.143749 0.968984 0.201015
vn 0.994774 -0.000000 0.102103
vn 0.986506 -0.160439 0.032632
vn 0.011034 0.999903 0.008511
vn -0.000000 0.999778 0.021059
vn 0.000000 0.951406 0.307939
vn 0.000000 -0.131446 0.991323
vn -0.080674 -0.130427 0.988170
vn -0.172197 0.000000 0.985062
vn -0.033276 0.954550 0.296189
vn 0.826754 0.486105 0.283159
vn 0.068922 0.997619 0.002392
vn 0.888127 0.458658 0.029378
vn 0.995236 0.000000 -0.097499
vn 0.943271 -0.171888 -0.284066
vn 0.026418 0.999563 -0.013269
vn 0.000000 0.999918 -0.012817
vn -0.016859 0.999829 0.007660
vn -0.192699 0.919031 0.343873
vn -0.489348 -0.000000 0.872088
vn -0.482393 -0.162278 0.860792
vn -0.481206 -0.162656 0.861385
vn 0.069225 0.997527 -0.012126
vn 0.837554 0.484647 -0.252229
vn 0.674961 -0.000000 -0.737853
vn 0.611564 -0.160417 -0.774762
vn 0.046573 0.958073 -0.282713
vn 0.294981 0.881062 -0.369752
vn -0.018421 0.999706 -0.015775
vn -0.000000 0.957597 -0.288112
vn -0.046573 0.958073 -0.282713
vn -0.343992 0.893731 0.287947
vn -0.338175 0.939480 -0.054902
vn -0.068678 0.997636 0.002314
vn -0.068575 0.997370 0.023483
vn -0.766965 0.000000 0.641689
vn -0.754476 -0.178725 0.631525
vn 0.543982 0.000000 -0.839097
vn 0.537229 -0.156537 -0.828783
vn -0.000000 0.000000 -1.000000
vn 0.106652 -0.000000 -0.994296
vn -0.294981 0.881062 -0.369752
vn -0.272658 0.000000 -0.962111
vn -0.946000 0.000000 0.324166
vn -0.826877 0.485880 0.283188
vn -0.674961 0.000000 -0.737853
vn -0.866321 0.475892 -0.151708
vn -0.995461 0.080652 0.050516
vn -0.888062 0.458750 0.029921
vn -0.931883 -0.172443 0.319150
vn 0.105753 -0.130754 -0.985758
vn 0.000000 -0.131446 -0.991323
vn -0.105753 -0.130754 -0.985758
vn -0.611564 -0.160417 -0.774762
vn -0.537229 -0.156537 -0.828783
vn -0.943271 -0.171888 -0.284066
vn -0.981710 -0.164304 -0.096174
vn -0.987065 -0.159399 0.017153
f 1/1/1 2/2/2 3/3/3
f 4/4/4 2/2/2 1/1/1
f 5/5/5 4/4/4 1/1/1
f 4/4/4 6/6/6 2/2/2
f 2/2/2 6/6/6 7/7/7
f 2/2/2 7/7/7 8/8/8
f 2/2/2 8/8/8 9/9/9
f 10/10/10 4/4/4 5/5/5
f 10/10/10 11/11/11 4/4/4
f 4/4/4 11/11/11 6/6/6
f 10/10/10 5/5/5 12/12/12
f 12/12/12 5/5/5 13/13/13
f 11/11/11 14/14/14 6/6/6
f 6/6/6 14/14/14 7/7/7
f 14/14/14 15/15/15 7/7/7
f 7/7/7 15/15/15 16/16/16
f 8/8/8 7/7/7 16/16/16
f 9/9/9 8/8/8 17/17/17
f 17/17/17 8/8/8 18/18/18
f 18/18/18 8/8/8 19/19/19
f 19/19/19 8/8/8 20/20/20
f 20/20/20 8/8/8 16/16/16
f 12/12/12 21/21/21 10/10/10
f 22/22/22 14/14/14 11/11/11
f 23/23/23 21/21/21 12/12/12
f 24/24/24 23/23/23 12/12/12
f 12/12/12 13/13/13 24/24/24
f 24/24/24 13/13/13 25/25/25
f 14/14/14 22/22/22 26/26/26
f 15/15/15 14/14/14 27/27/27
f 27/27/27 14/14/14 26/26/26
f 15/15/15 20/20/20 16/16/16
f 28/28/28 20/20/20 15/15/15
f 27/27/27 28/28/28 15/15/15
f 20/20/20 29/29/29 19/19/19
f 19/19/19 29/29/29 30/30/30
f 31/31/31 19/19/19 30/30/30
f 32/32/32 19/19/19 31/31/31
f 20/20/20 28/28/28 29/29/29
f 26/26/26 22/22/22 33/33/33
f 34/34/34 23/23/23 24/24/24
f 35/35/35 34/34/34 24/24/24
f 24/24/24 25/25/25 35/35/35
f 35/35/35 25/25/25 36/36/36
f 37/37/37 26/26/26 38/38/38
f 38/38/38 26/26/26 33/33/33
f 26/26/26 37/37/37 27/27/27
f 39/39/39 28/28/28 27/27/27
f 27/27/27 37/37/37 40/40/40
f 41/41/41 27/27/27 40/40/40
f 39/39/39 27/27/27 41/41/41
f 29/29/29 28/28/28 42/42/42
f 39/39/39 43/43/43 28/28/28
f 28/28/28 43/43/43 44/44/44
f 45/45/45 28/28/28 44/44/44
f 42/42/42 28/28/28 45/45/45
f 29/29/29 42/42/42 30/30/30
f 30/30/30 42/42/42 46/46/46
f 47/47/47 30/30/30 46/46/46
f 31/31/31 30/30/30 47/47/47
f 38/38/38 34/34/34 35/35/35
f 35/35/35 36/36/36 48/48/48
f 48/48/48 38/38/38 35/35/35
f 48/48/48 36/36/36 49/49/49
f 37/37/37 38/38/38 48/48/48
f 40/40/40 37/37/37 50/50/50
f 50/50/50 37/37/37 51/51/51
f 52/52/52 39/39/39 41/41/41
f 43/43/43 39/39/39 52/52/52
f 50/50/50 41/41/41 40/40/40
f 53/53/53 41/41/41 50/50/50
f 53/53/53 52/52/52 41/41/41
f 46/46/46 42/42/42 54/54/54
f 54/54/54 42/42/42 55/55/55
f 56/56/56 43/43/43 52/52/52
f 57/57/57 43/43/43 56/56/56
f 58/58/58 43/43/43 57/57/57
f 59/59/59 43/43/43 58/58/58
f 54/54/54 47/47/47 46/46/46
f 60/60/60 47/47/47 54/54/54
f 51/51/51 61/61/61 50/50/50
f 50/50/50 61/61/61 62/62/62
f 62/62/62 63/63/63 50/50/50
f 50/50/50 63/63/63 53/53/53
f 56/56/56 52/52/52 53/53/53
f 53/53/53 64/64/64 56/56/56
f 65/65/65 64/64/64 53/53/53
f 58/58/58 60/60/60 54/54/54
f 54/54/54 55/55/55 58/58/58
f 58/58/58 55/55/55 59/59/59
f 64/64/64 66/66/66 56/56/56
f 56/56/56 66/66/66 67/67/67
f 58/58/58 67/67/67 68/68/68
f 68/68/68 60/60/60 58/58/58
f 68/68/68 67/67/67 66/66/66
