# Exported by s4extract — 1_mlod00_g01_part113
o 1_mlod00_g01_part113
v -0.271013 0.645181 0.130806
v -0.271013 0.638650 0.144601
v -0.271013 0.647745 0.135506
v -0.271013 0.652628 0.138253
v -0.271013 0.652628 0.153269
vt 0.071944 0.482875
vt 0.062871 0.474746
vt 0.071944 0.474746
vt 0.071944 0.466373
vt 0.062871 0.466373
vn -1.000000 0.000000 0.000000
vn -1.000000 0.000000 0.000000
vn -1.000000 0.000000 0.000000
vn -1.000000 0.000000 0.000000
vn -1.000000 0.000000 0.000000
f 1/1/1 2/2/2 3/3/3
f 2/2/2 4/4/4 3/3/3
f 5/5/5 4/4/4 2/2/2
