# Exported by s4extract — 1_mlod00_g01_part08
o 1_mlod00_g01_part08
v 0.367515 0.724593 0.097967
v 0.405725 0.724593 0.058292
v 0.378380 0.724593 0.070256
v 0.379418 0.724593 0.125313
v 0.407190 0.724593 0.136239
v 0.433498 0.724593 0.069218
v 0.434536 0.724593 0.124336
v 0.445401 0.724593 0.096564
vt 0.235286 0.288934
vt 0.231785 0.298312
vt 0.235286 0.294354
vt 0.231785 0.284976
vt 0.226305 0.284976
vt 0.226305 0.298312
vt 0.222804 0.288934
vt 0.222804 0.294354
vn 0.000000 1.000000 0.000000
vn 0.000000 1.000000 0.000000
vn 0.000000 1.000000 0.000000
vn 0.000000 1.000000 0.000000
vn 0.000000 1.000000 0.000000
vn 0.000000 1.000000 0.000000
vn 0.000000 1.000000 0.000000
vn 0.000000 1.000000 0.000000
f 1/1/1 2/2/2 3/3/3
f 4/4/4 2/2/2 1/1/1
f 5/5/5 2/2/2 4/4/4
f 6/6/6 2/2/2 5/5/5
f 5/5/5 7/7/7 6/6/6
f 6/6/6 7/7/7 8/8/8
