# Exported by s4extract — 1_mlod00_g01_part207
o 1_mlod00_g01_part207
v -0.036990 0.620521 -0.170421
v -0.036990 0.630165 -0.234572
v -0.036990 0.620521 -0.234572
v -0.036990 0.622902 -0.242324
v -0.036990 0.628823 -0.244461
vt 0.312071 0.107324
vt 0.323458 0.148396
vt 0.312071 0.139414
vt 0.312071 0.144407
vt 0.312071 0.149553
vn -1.000000 0.000000 0.000000
vn -1.000000 0.000000 0.000000
vn -1.000000 0.000000 0.000000
vn -1.000000 0.000000 0.000000
vn -1.000000 0.000000 0.000000
f 1/1/1 2/2/2 3/3/3
f 2/2/2 4/4/4 3/3/3
f 2/2/2 5/5/5 4/4/4
