# Exported by s4extract — 1_mlod00_g01_part78
o 1_mlod00_g01_part78
v 0.000000 0.239089 0.044864
v 0.015870 0.239089 0.038332
v 0.015870 0.239089 0.195874
v -0.015870 0.239089 0.195874
v -0.015870 0.239089 0.038332
vt 0.638422 0.680926
vt 0.630475 0.684214
vt 0.630475 0.605420
vt 0.646337 0.605420
vt 0.646337 0.684214
vn 0.000000 -1.000000 0.000000
vn 0.000000 -1.000000 0.000000
vn 0.000000 -1.000000 0.000000
vn 0.000000 -1.000000 0.000000
vn 0.000000 -1.000000 0.000000
f 1/1/1 2/2/2 3/3/3
f 4/4/4 1/1/1 3/3/3
f 5/5/5 1/1/1 4/4/4
