# Exported by s4extract — 1_mlod00_g01_part31
o 1_mlod00_g01_part31
v 0.384911 0.888970 0.076726
v 0.391870 0.861747 0.067326
v 0.389855 0.886162 0.060428
v 0.387963 0.863456 0.081121
v 0.407435 0.738143 0.095587
v 0.403955 0.735763 0.111457
vt 0.214644 0.233644
vt 0.220886 0.220705
vt 0.220459 0.233705
vt 0.214553 0.220309
vt 0.219485 0.182191
vt 0.214248 0.180425
vn 0.953831 0.154969 0.257277
vn 0.953004 0.169993 0.250769
vn 0.952702 0.152809 0.262695
vn 0.954351 0.174515 0.242404
vn 0.954259 0.176162 0.241570
vn 0.955757 0.175739 0.235892
f 1/1/1 2/2/2 3/3/3
f 4/4/4 2/2/2 1/1/1
f 4/4/4 5/5/5 2/2/2
f 6/6/6 5/5/5 4/4/4
