# Exported by s4extract — 1_mlod00_g01_part206
o 1_mlod00_g01_part206
v -0.036990 0.620521 -0.170421
v -0.036990 0.620521 -0.234572
v 0.036990 0.620521 -0.170421
v 0.036990 0.620521 -0.234572
v -0.036990 0.622902 -0.242324
v 0.036990 0.622902 -0.242324
v 0.036990 0.628823 -0.244461
v -0.036990 0.628823 -0.244461
v 0.038149 0.881585 -0.274980
v -0.038149 0.881585 -0.274980
vt 0.381671 0.107324
vt 0.381671 0.139414
vt 0.419789 0.107324
vt 0.419789 0.139414
vt 0.381671 0.144407
vt 0.419789 0.144407
vt 0.419789 0.149553
vt 0.381671 0.149553
vt 0.419789 0.274107
vt 0.381671 0.274107
vn 0.000000 -1.000000 0.000000
vn 0.000000 -0.999847 -0.017494
vn 0.000000 -1.000000 0.000000
vn 0.000000 -0.998219 -0.059664
vn 0.000000 -0.765891 -0.642970
vn 0.000000 -0.765891 -0.642970
vn 0.000000 -0.130366 -0.991466
vn 0.000000 -0.122550 -0.992462
vn 0.000000 -0.119873 -0.992789
vn 0.000000 -0.119873 -0.992789
f 1/1/1 2/2/2 3/3/3
f 3/3/3 2/2/2 4/4/4
f 5/5/5 4/4/4 2/2/2
f 6/6/6 4/4/4 5/5/5
f 5/5/5 7/7/7 6/6/6
f 8/8/8 7/7/7 5/5/5
f 8/8/8 9/9/9 7/7/7
f 10/10/10 9/9/9 8/8/8
