# Exported by s4extract — 1_mlod00_g01_part96
o 1_mlod00_g01_part96
v 0.031740 0.139718 -0.031740
v 0.000000 0.064091 -0.047916
v 0.000000 0.139718 -0.044864
v 0.033877 0.064091 -0.033877
v 0.044864 0.139718 0.000000
v 0.047916 0.064091 0.000000
vt 0.973845 0.249629
vt 0.988459 0.211815
vt 0.988459 0.249629
vt 0.973845 0.211815
vt 0.957982 0.249629
vt 0.957982 0.211815
vn 0.598535 0.039648 -0.800115
vn 0.382215 0.037070 -0.923329
vn 0.381825 0.037267 -0.923483
vn 0.793127 0.039708 -0.607760
vn 0.923329 0.037070 -0.382215
vn 0.923173 0.037255 -0.382576
f 1/1/1 2/2/2 3/3/3
f 4/4/4 2/2/2 1/1/1
f 5/5/5 4/4/4 1/1/1
f 6/6/6 4/4/4 5/5/5
