# Exported by s4extract — 1_mlod00_g01_part118
o 1_mlod00_g01_part118
v -0.233169 0.652628 -0.164195
v -0.271013 0.652628 -0.164195
v -0.233169 0.707258 -0.184765
v -0.271013 0.707258 -0.184765
v -0.233169 0.721235 -0.176097
v -0.271013 0.721235 -0.176097
v -0.233169 0.729781 -0.162302
v -0.271013 0.729781 -0.162302
v -0.233169 0.729781 0.161082
v -0.271013 0.729781 0.161082
v -0.271013 0.720869 0.176830
v -0.233169 0.720869 0.176830
v -0.271013 0.707258 0.182140
v -0.233169 0.707258 0.182140
v -0.271013 0.652628 0.153269
v -0.233169 0.652628 0.153269
vt 0.040737 0.726230
vt 0.021799 0.726230
vt 0.040737 0.688903
vt 0.021799 0.688903
vt 0.040737 0.675233
vt 0.021799 0.675233
vt 0.040737 0.661197
vt 0.021799 0.661197
vt 0.040737 0.499529
vt 0.021799 0.499529
vt 0.021799 0.484519
vt 0.040737 0.484519
vt 0.021799 0.470545
vt 0.040737 0.470545
vt 0.021799 0.437237
vt 0.040737 0.437237
vn 0.000000 -0.352384 -0.935856
vn 0.000000 -0.352384 -0.935856
vn 0.000000 -0.254800 -0.966994
vn 0.000000 -0.039142 -0.999234
vn 0.000000 0.648903 -0.760871
vn 0.000000 0.759347 -0.650686
vn 0.000000 0.998816 -0.048638
vn 0.000000 0.999916 -0.012936
vn 0.000000 0.999655 0.026269
vn 0.000000 0.999655 0.026269
vn 0.000000 0.760413 0.649440
vn 0.000000 0.589469 0.807791
vn 0.000000 -0.217624 0.976033
vn 0.000000 -0.392485 0.919758
vn 0.000000 -0.467252 0.884124
vn 0.000000 -0.467252 0.884124
f 1/1/1 2/2/2 3/3/3
f 3/3/3 2/2/2 4/4/4
f 4/4/4 5/5/5 3/3/3
f 6/6/6 5/5/5 4/4/4
f 5/5/5 6/6/6 7/7/7
f 7/7/7 6/6/6 8/8/8
f 8/8/8 9/9/9 7/7/7
f 10/10/10 9/9/9 8/8/8
f 10/10/10 11/11/11 9/9/9
f 9/9/9 11/11/11 12/12/12
f 11/11/11 13/13/13 12/12/12
f 12/12/12 13/13/13 14/14/14
f 15/15/15 14/14/14 13/13/13
f 16/16/16 14/14/14 15/15/15
