# Exported by s4extract — 1_mlod00_g02_part14
o 1_mlod00_g02_part14
v 0.496918 0.743454 -0.067753
v 0.497589 0.750046 -0.059513
v 0.490386 0.743454 -0.142037
v 0.498505 0.825856 -0.047244
v 0.497650 0.833425 -0.056339
v 0.490264 0.771531 -0.142648
vt 0.080104 0.296195
vt 0.062334 0.303121
vt 0.239644 0.296165
vt 0.035420 0.382527
vt 0.054648 0.390455
vt 0.239644 0.325600
vn -0.996125 -0.008018 0.087580
vn -0.996192 -0.002504 0.087146
vn -0.996166 -0.002817 0.087442
vn -0.996154 -0.002605 0.087575
vn -0.996120 -0.003347 0.087943
vn -0.996206 -0.002440 0.086998
f 1/1/1 2/2/2 3/3/3
f 3/3/3 2/2/2 4/4/4
f 5/5/5 3/3/3 4/4/4
f 3/3/3 5/5/5 6/6/6
