# Exported by s4extract — 1_mlod00_g02_part57
o 1_mlod00_g02_part57
v 0.529817 0.982787 -0.073003
v 0.531099 0.984069 -0.058780
v 0.530489 0.978148 -0.065373
v 0.530794 0.992370 -0.062443
v 0.530001 0.991577 -0.071171
vt 0.482630 0.977521
vt 0.467897 0.987637
vt 0.467897 0.979890
vt 0.482630 0.990036
vt 0.491743 0.983779
vn 0.995962 -0.002657 -0.089739
vn 0.995982 -0.002935 -0.089502
vn 0.995983 -0.003037 -0.089493
vn 0.995954 -0.002511 -0.089833
vn 0.995907 -0.001923 -0.090362
f 1/1/1 2/2/2 3/3/3
f 1/1/1 4/4/4 2/2/2
f 5/5/5 4/4/4 1/1/1
