# Exported by s4extract — 1_mlod00_g01_part07
o 1_mlod00_g01_part07
v 0.452786 0.874321 0.049258
v 0.405237 0.874321 0.030580
v 0.405725 0.724593 0.058292
v 0.433498 0.724593 0.069218
v 0.473173 0.874321 0.096075
v 0.445401 0.724593 0.096564
vt 0.257999 0.168216
vt 0.299406 0.168216
vt 0.290729 0.008497
vt 0.256477 0.009105
vt 0.215923 0.168216
vt 0.224295 0.009440
vn -0.613608 0.181447 0.768480
vn -0.360380 0.168624 0.917438
vn -0.360551 0.168673 0.917362
vn -0.803745 0.179187 0.567350
vn -0.903696 0.168887 0.393461
vn -0.903732 0.168914 0.393366
f 1/1/1 2/2/2 3/3/3
f 3/3/3 4/4/4 1/1/1
f 5/5/5 1/1/1 4/4/4
f 4/4/4 6/6/6 5/5/5
