# Exported by s4extract — 1_mlod00_g01_part26
o 1_mlod00_g01_part26
v 0.443447 0.866386 0.060612
v 0.438503 0.889947 0.054080
v 0.447476 0.887811 0.051639
v 0.435940 0.868156 0.062687
v 0.411890 0.719648 0.105109
v 0.420802 0.717512 0.102606
vt 0.195463 0.283911
vt 0.198325 0.296485
vt 0.195463 0.296485
vt 0.198325 0.283911
vt 0.198325 0.242108
vt 0.195463 0.242108
vn -0.310868 -0.227741 -0.922765
vn -0.319572 -0.314807 -0.893740
vn -0.318257 -0.314674 -0.894255
vn -0.309039 -0.228344 -0.923230
vn -0.309324 -0.214423 -0.926467
vn -0.311289 -0.213842 -0.925943
f 1/1/1 2/2/2 3/3/3
f 4/4/4 2/2/2 1/1/1
f 1/1/1 5/5/5 4/4/4
f 6/6/6 5/5/5 1/1/1
