# Exported by s4extract — 1_mlod00_g01_part247
o 1_mlod00_g01_part247
v 0.532992 0.733687 0.058964
v 0.508271 0.743209 0.060856
v 0.525545 0.733687 0.075749
v 0.525545 0.733687 0.042178
v 0.508271 0.733687 0.034487
v 0.491058 0.733687 0.042178
v 0.483611 0.733687 0.058964
v 0.491058 0.733687 0.075749
v 0.508271 0.733687 0.083501
vt 0.146597 0.033614
vt 0.145897 0.044088
vt 0.139443 0.036720
vt 0.153752 0.036750
vt 0.156979 0.044088
vt 0.153752 0.051425
vt 0.146597 0.054531
vt 0.139443 0.051456
vt 0.136185 0.044088
vn 0.359442 0.933167 0.000000
vn 0.000000 1.000000 -0.000000
vn 0.272103 0.922394 0.274133
vn 0.246755 0.936485 -0.249216
vn 0.000000 0.940554 -0.339644
vn -0.247439 0.936285 -0.249290
vn -0.360217 0.932869 0.000000
vn -0.272859 0.922146 0.274216
vn 0.000000 0.921822 0.387613
f 1/1/1 2/2/2 3/3/3
f 1/1/1 4/4/4 2/2/2
f 5/5/5 2/2/2 4/4/4
f 5/5/5 6/6/6 2/2/2
f 7/7/7 2/2/2 6/6/6
f 8/8/8 2/2/2 7/7/7
f 9/9/9 2/2/2 8/8/8
f 9/9/9 3/3/3 2/2/2
