# Exported by s4extract — 1_mlod00_g01_part47
o 1_mlod00_g01_part47
v 0.350424 0.718183 -0.136056
v 0.382287 0.761338 -0.149301
v 0.382287 0.718183 -0.149301
v 0.350424 0.761338 -0.136056
v 0.337179 0.718183 -0.104193
v 0.337179 0.761338 -0.104193
v 0.350424 0.718183 -0.072270
v 0.350424 0.761338 -0.072270
v 0.382287 0.761338 -0.059086
v 0.382287 0.718183 -0.059086
v 0.414210 0.718183 -0.072270
v 0.414210 0.761338 -0.072270
v 0.427455 0.718183 -0.104193
v 0.427455 0.761338 -0.104193
v 0.414210 0.718183 -0.136056
v 0.414210 0.761338 -0.136056
v 0.382287 0.718183 -0.149301
v 0.382287 0.761338 -0.149301
vt 0.281838 0.219670
vt 0.295813 0.226094
vt 0.281838 0.226094
vt 0.295813 0.219670
vt 0.281838 0.213246
vt 0.295813 0.213246
vt 0.281838 0.206822
vt 0.295813 0.206822
vt 0.295813 0.200397
vt 0.281838 0.200397
vt 0.281838 0.193973
vt 0.295813 0.193973
vt 0.281838 0.187549
vt 0.295813 0.187549
vt 0.281838 0.181156
vt 0.295813 0.181156
vt 0.281838 0.174732
vt 0.295813 0.174732
vn -0.604137 0.000000 -0.796880
vn -0.383862 0.000000 -0.923391
vn -0.383862 0.000000 -0.923391
vn -0.796880 0.000000 -0.604137
vn -0.990547 0.000000 -0.137172
vn -0.990559 0.000000 0.137086
vn -0.707107 0.000000 0.707107
vn -0.707107 0.000000 0.707107
vn 0.000000 0.000000 1.000000
vn 0.000000 0.000000 1.000000
vn 0.603128 0.000000 0.797645
vn 0.796807 0.000000 0.604234
vn 0.990559 0.000000 0.137086
vn 0.990547 0.000000 -0.137172
vn 0.796576 0.000000 -0.604539
vn 0.603529 0.000000 -0.797341
vn 0.383236 0.000000 -0.923651
vn 0.383236 0.000000 -0.923651
f 1/1/1 2/2/2 3/3/3
f 4/4/4 2/2/2 1/1/1
f 5/5/5 4/4/4 1/1/1
f 6/6/6 4/4/4 5/5/5
f 7/7/7 6/6/6 5/5/5
f 8/8/8 6/6/6 7/7/7
f 7/7/7 9/9/9 8/8/8
f 10/10/10 9/9/9 7/7/7
f 11/11/11 9/9/9 10/10/10
f 12/12/12 9/9/9 11/11/11
f 13/13/13 12/12/12 11/11/11
f 14/14/14 12/12/12 13/13/13
f 15/15/15 14/14/14 13/13/13
f 16/16/16 14/14/14 15/15/15
f 17/17/17 16/16/16 15/15/15
f 18/18/18 16/16/16 17/17/17
