# Exported by s4extract — 1_mlod00_g01_part248
o 1_mlod00_g01_part248
v 0.521333 0.733687 0.123482
v 0.496673 0.743209 0.125374
v 0.513947 0.733687 0.140267
v 0.513947 0.733687 0.106696
v 0.496612 0.733687 0.098944
v 0.479399 0.733687 0.106696
v 0.472014 0.733687 0.123482
v 0.479399 0.733687 0.140267
v 0.496612 0.733687 0.148019
vt 0.126960 0.058793
vt 0.126229 0.069267
vt 0.119805 0.061899
vt 0.134084 0.061929
vt 0.137342 0.069267
vt 0.134084 0.076574
vt 0.126960 0.079710
vt 0.119805 0.076604
vt 0.116547 0.069267
vn 0.360217 0.932869 0.000000
vn 0.000000 1.000000 0.000000
vn 0.272103 0.922394 0.274133
vn 0.247074 0.936480 -0.248918
vn 0.000000 0.940804 -0.338950
vn -0.247709 0.936469 -0.248325
vn -0.360217 0.932869 0.000000
vn -0.272736 0.922420 0.273415
vn 0.000000 0.921822 0.387613
f 1/1/1 2/2/2 3/3/3
f 1/1/1 4/4/4 2/2/2
f 5/5/5 2/2/2 4/4/4
f 5/5/5 6/6/6 2/2/2
f 7/7/7 2/2/2 6/6/6
f 8/8/8 2/2/2 7/7/7
f 9/9/9 2/2/2 8/8/8
f 9/9/9 3/3/3 2/2/2
