# Exported by s4extract — 1_mlod00_g01_part93
o 1_mlod00_g01_part93
v 0.026979 0.139718 0.026979
v 0.044864 0.139718 0.000000
v 0.038149 0.139718 0.000000
v 0.031740 0.139718 0.031740
v 0.000000 0.139718 0.038149
v 0.031740 0.139718 -0.031740
v 0.038149 0.139718 0.000000
v 0.000000 0.139718 0.044864
v -0.026979 0.139718 0.026979
v 0.000000 0.139718 -0.044864
v 0.026979 0.139718 -0.026979
v 0.026979 0.139718 -0.026979
v -0.031740 0.139718 0.031740
v -0.038149 0.139718 0.000000
v -0.031740 0.139718 -0.031740
v 0.000000 0.139718 -0.038149
v -0.044864 0.139718 0.000000
v -0.026979 0.139718 -0.026979
vt 0.960997 0.692952
vt 0.971044 0.682875
vt 0.971044 0.682875
vt 0.960997 0.692952
vt 0.960997 0.707201
vt 0.985292 0.682875
vt 0.971044 0.682875
vt 0.960997 0.707201
vt 0.971044 0.717279
vt 0.995370 0.692952
vt 0.985292 0.682875
vt 0.985292 0.682875
vt 0.971044 0.717279
vt 0.985292 0.717279
vt 0.995370 0.707201
vt 0.995370 0.692952
vt 0.985292 0.717279
vt 0.995370 0.707201
vn 0.000000 1.000000 0.000000
vn 0.000000 1.000000 0.000000
vn 0.000000 1.000000 0.000000
vn 0.000000 1.000000 0.000000
vn 0.000000 1.000000 0.000000
vn 0.000000 1.000000 0.000000
vn 0.000000 1.000000 0.000000
vn 0.000000 1.000000 0.000000
vn 0.000000 1.000000 0.000000
vn 0.000000 1.000000 0.000000
vn 0.000000 1.000000 0.000000
vn 0.000000 1.000000 0.000000
vn 0.000000 1.000000 0.000000
vn 0.000000 1.000000 0.000000
vn 0.000000 1.000000 0.000000
vn 0.000000 1.000000 0.000000
vn 0.000000 1.000000 0.000000
vn 0.000000 1.000000 0.000000
f 1/1/1 2/2/2 3/3/3
f 4/4/4 2/2/2 1/1/1
f 5/5/5 4/4/4 1/1/1
f 2/2/2 6/6/6 7/7/7
f 8/8/8 4/4/4 5/5/5
f 9/9/9 8/8/8 5/5/5
f 6/6/6 10/10/10 11/11/11
f 7/7/7 6/6/6 12/12/12
f 13/13/13 8/8/8 9/9/9
f 14/14/14 13/13/13 9/9/9
f 10/10/10 15/15/15 16/16/16
f 11/11/11 10/10/10 16/16/16
f 17/17/17 13/13/13 14/14/14
f 18/18/18 17/17/17 14/14/14
f 15/15/15 17/17/17 18/18/18
f 16/16/16 15/15/15 18/18/18
