# Exported by s4extract — 1_mlod00_g01_part163
o 1_mlod00_g01_part163
v 0.480010 0.508820 -0.149179
v 0.480010 0.499237 -0.158091
v 0.480010 0.496673 -0.149179
v 0.480010 0.508820 -0.164195
v 0.480010 0.689861 -0.164195
v 0.480010 0.689861 -0.149179
vt 0.755699 0.219122
vt 0.764407 0.214342
vt 0.764407 0.209623
vt 0.764407 0.219122
vt 0.764407 0.309668
vt 0.755699 0.309668
vn -1.000000 0.000000 0.000000
vn -1.000000 0.000000 0.000000
vn -1.000000 0.000000 0.000000
vn -1.000000 0.000000 0.000000
vn -1.000000 0.000000 0.000000
vn -1.000000 0.000000 0.000000
f 1/1/1 2/2/2 3/3/3
f 1/1/1 4/4/4 2/2/2
f 1/1/1 5/5/5 4/4/4
f 6/6/6 5/5/5 1/1/1
