# Exported by s4extract — 1_mlod00_g01_part17
o 1_mlod00_g01_part17
v 0.532992 0.733687 0.058964
v 0.532992 0.718550 0.058964
v 0.525545 0.733687 0.042178
v 0.525545 0.718550 0.042178
v 0.508271 0.733687 0.034487
v 0.508271 0.718550 0.034487
vt 0.037022 0.037359
vt 0.037022 0.046341
vt 0.026153 0.037359
vt 0.026153 0.046341
vt 0.014919 0.037359
vt 0.014919 0.046341
vn 0.914085 0.000000 -0.405522
vn 0.914085 0.000000 -0.405522
vn 0.788661 0.000000 -0.614829
vn 0.608092 0.000000 -0.793866
vn 0.406737 0.000000 -0.913545
vn 0.406737 0.000000 -0.913545
f 1/1/1 2/2/2 3/3/3
f 3/3/3 2/2/2 4/4/4
f 3/3/3 4/4/4 5/5/5
f 5/5/5 4/4/4 6/6/6
