# Exported by s4extract — 1_mlod00_g02_part25
o 1_mlod00_g02_part25
v 0.504303 0.743454 -0.130196
v 0.513093 0.715864 -0.134774
v 0.513154 0.743454 -0.134774
v 0.504303 0.715864 -0.130196
v 0.494842 0.715864 -0.133187
v 0.494842 0.743454 -0.133187
v 0.504303 0.715864 -0.130196
vt 0.267348 0.942952
vt 0.280957 0.910692
vt 0.280957 0.942952
vt 0.267348 0.910692
vt 0.253709 0.910692
vt 0.253709 0.942952
vt 0.267348 0.910692
vn 0.086486 -0.000276 0.996253
vn 0.460676 -0.000510 0.887568
vn 0.459423 -0.001016 0.888217
vn 0.461934 0.000000 0.886914
vn -0.301426 0.000000 0.953490
vn -0.301426 0.000000 0.953490
vn -0.301426 0.000000 0.953490
f 1/1/1 2/2/2 3/3/3
f 4/4/4 2/2/2 1/1/1
f 5/5/5 1/1/1 6/6/6
f 7/7/7 1/1/1 5/5/5
