# Exported by s4extract — 1_mlod00_g02_part79
o 1_mlod00_g02_part79
v 0.526888 0.976988 -0.074651
v 0.517732 0.824452 -0.065861
v 0.517427 0.977416 -0.070561
v 0.527010 0.823781 -0.069828
v 0.526888 0.976988 -0.074651
v 0.533480 0.825734 -0.061344
v 0.533541 0.978148 -0.065983
vt 0.411487 0.576089
vt 0.441773 0.430644
vt 0.441773 0.576089
vt 0.411487 0.430644
vt 0.411487 0.576089
vt 0.381231 0.430644
vt 0.381231 0.576089
vn -0.396274 -0.029093 -0.917671
vn -0.396274 -0.029093 -0.917671
vn -0.397712 -0.028971 -0.917053
vn 0.277836 -0.029999 -0.960160
vn 0.795685 -0.018583 -0.605425
vn 0.795685 -0.018583 -0.605425
vn 0.794320 -0.018799 -0.607209
f 1/1/1 2/2/2 3/3/3
f 4/4/4 2/2/2 1/1/1
f 4/4/4 5/5/5 6/6/6
f 6/6/6 5/5/5 7/7/7
