# Exported by s4extract — 1_mlod00_g02_part99
o 1_mlod00_g02_part99
v 0.372948 1.431301 0.106269
v 0.414210 1.360068 0.077397
v 0.389733 1.377159 0.117561
v 0.388390 1.443081 0.060123
v 0.345053 1.477019 0.127937
v 0.413233 1.295611 0.138680
v 0.389123 1.335164 0.157480
v 0.345663 1.513276 0.093389
v 0.316731 1.497040 0.174327
v 0.385705 1.274431 0.220778
v 0.371177 1.321370 0.211011
v 0.302142 1.543979 0.164561
v 0.298602 1.483611 0.227919
v 0.342001 1.304828 0.292376
v 0.342672 1.341146 0.257706
v 0.274370 1.523347 0.246719
v 0.297748 1.441616 0.268144
v 0.298907 1.375328 0.325948
v 0.314594 1.387170 0.279558
v 0.273088 1.458951 0.308491
vt 0.421116 0.160228
vt 0.497393 0.100082
vt 0.420752 0.112566
vt 0.497940 0.172622
vt 0.365375 0.198867
vt 0.411578 0.041272
vt 0.364372 0.073897
vt 0.413158 0.231432
vt 0.275003 0.213783
vt 0.275003 0.018641
vt 0.275003 0.059042
vt 0.275003 0.254154
vt 0.183264 0.199232
vt 0.133871 0.041120
vt 0.181897 0.073805
vt 0.135937 0.232039
vt 0.126247 0.160562
vt 0.048330 0.100203
vt 0.125700 0.112597
vt 0.049150 0.173229
vn -0.859623 -0.345650 -0.376263
vn -0.859606 -0.345378 -0.376551
vn -0.859588 -0.345219 -0.376740
vn -0.859683 -0.345418 -0.376339
vn -0.859759 -0.344998 -0.376550
vn -0.859635 -0.344950 -0.376878
vn -0.859701 -0.345010 -0.376674
vn -0.859743 -0.344889 -0.376687
vn -0.859610 -0.345163 -0.376741
vn -0.859331 -0.344711 -0.377789
vn -0.859493 -0.344634 -0.377491
vn -0.859363 -0.345516 -0.376981
vn -0.859187 -0.345346 -0.377536
vn -0.859114 -0.344867 -0.378140
vn -0.859160 -0.344817 -0.378081
vn -0.859314 -0.345074 -0.377496
vn -0.859398 -0.344859 -0.377500
vn -0.859096 -0.344557 -0.378463
vn -0.859212 -0.344696 -0.378073
vn -0.859418 -0.344640 -0.377655
f 1/1/1 2/2/2 3/3/3
f 4/4/4 2/2/2 1/1/1
f 5/5/5 4/4/4 1/1/1
f 2/2/2 6/6/6 3/3/3
f 3/3/3 6/6/6 7/7/7
f 8/8/8 4/4/4 5/5/5
f 9/9/9 8/8/8 5/5/5
f 10/10/10 11/11/11 6/6/6
f 6/6/6 11/11/11 7/7/7
f 12/12/12 8/8/8 9/9/9
f 13/13/13 12/12/12 9/9/9
f 14/14/14 15/15/15 10/10/10
f 10/10/10 15/15/15 11/11/11
f 16/16/16 12/12/12 13/13/13
f 17/17/17 16/16/16 13/13/13
f 18/18/18 19/19/19 14/14/14
f 14/14/14 19/19/19 15/15/15
f 20/20/20 16/16/16 17/17/17
f 19/19/19 20/20/20 17/17/17
f 18/18/18 20/20/20 19/19/19
