# Exported by s4extract — 1_mlod00_g01_part183
o 1_mlod00_g01_part183
v 0.310688 0.689007 0.182140
v 0.348532 0.553806 0.156870
v 0.348532 0.689007 0.182140
v 0.310688 0.516084 0.153269
v 0.348532 0.516084 0.153269
vt 0.843323 0.426824
vt 0.862230 0.359234
vt 0.862230 0.426824
vt 0.843323 0.340388
vt 0.862230 0.340388
vn 0.039359 -0.172928 0.984148
vn 0.035122 -0.164580 0.985738
vn 0.000000 -0.183726 0.982978
vn 0.057720 -0.152104 0.986678
vn 0.000000 -0.095037 0.995474
f 1/1/1 2/2/2 3/3/3
f 4/4/4 2/2/2 1/1/1
f 2/2/2 4/4/4 5/5/5
