# Exported by s4extract — 1_mlod00_g01_part161
o 1_mlod00_g01_part161
v -0.278765 0.734420 0.127327
v -0.284380 0.713239 -0.099676
v -0.284380 0.713239 0.127327
v -0.278765 0.734420 -0.099676
v -0.268388 0.743515 -0.099676
v -0.268388 0.743515 0.127327
v -0.236404 0.743515 0.127327
v -0.236404 0.743515 -0.099676
v -0.226027 0.734420 0.127327
v -0.226027 0.734420 -0.099676
v -0.220411 0.713239 -0.099676
v -0.220411 0.713239 0.127327
vt 0.363768 0.562431
vt 0.351986 0.690151
vt 0.351986 0.562431
vt 0.363768 0.690151
vt 0.371715 0.690151
vt 0.371715 0.562431
vt 0.389708 0.562431
vt 0.389708 0.690151
vt 0.397655 0.562431
vt 0.397655 0.690151
vt 0.409437 0.690151
vt 0.409437 0.562431
vn -0.884221 0.467068 0.000000
vn -0.966604 0.256275 0.000000
vn -0.966604 0.256275 0.000000
vn -0.884221 0.467068 0.000000
vn -0.209914 0.977720 0.000000
vn -0.209914 0.977720 0.000000
vn 0.121426 0.992600 0.000000
vn 0.326058 0.945350 0.000000
vn 0.884221 0.467068 0.000000
vn 0.884221 0.467068 0.000000
vn 0.966604 0.256275 0.000000
vn 0.966604 0.256275 0.000000
f 1/1/1 2/2/2 3/3/3
f 4/4/4 2/2/2 1/1/1
f 1/1/1 5/5/5 4/4/4
f 6/6/6 5/5/5 1/1/1
f 7/7/7 5/5/5 6/6/6
f 8/8/8 5/5/5 7/7/7
f 7/7/7 9/9/9 8/8/8
f 8/8/8 9/9/9 10/10/10
f 9/9/9 11/11/11 10/10/10
f 12/12/12 11/11/11 9/9/9
