# Exported by s4extract — 1_mlod00_g01_part97
o 1_mlod00_g01_part97
v 0.031740 0.139718 0.031740
v 0.047916 0.064091 0.000000
v 0.044864 0.139718 0.000000
v 0.033877 0.064091 0.033877
v 0.000000 0.139718 0.044864
v 0.000000 0.064091 0.047916
vt 0.942090 0.249629
vt 0.957982 0.211815
vt 0.957982 0.249629
vt 0.942090 0.211815
vt 0.927476 0.249629
vt 0.927476 0.211815
vn 0.800115 0.039648 0.598535
vn 0.923329 0.037070 0.382215
vn 0.923483 0.037267 0.381825
vn 0.607760 0.039708 0.793127
vn 0.382215 0.037070 0.923329
vn 0.382576 0.037255 0.923173
f 1/1/1 2/2/2 3/3/3
f 4/4/4 2/2/2 1/1/1
f 5/5/5 4/4/4 1/1/1
f 6/6/6 4/4/4 5/5/5
