# Exported by s4extract — 1_mlod00_g01_part117
o 1_mlod00_g01_part117
v -0.233169 0.707258 0.167185
v -0.271013 0.652628 0.138253
v -0.271013 0.707258 0.167185
v -0.233169 0.652628 0.138253
v -0.271013 0.647745 0.135506
v -0.233169 0.647745 0.135506
v -0.271013 0.645181 0.130806
v -0.233169 0.645181 0.130806
v -0.271013 0.645181 -0.141671
v -0.233169 0.645181 -0.141671
v -0.271013 0.647745 -0.146432
v -0.233169 0.647745 -0.146432
v -0.271013 0.652628 -0.149179
v -0.233169 0.652628 -0.149179
v -0.233169 0.707258 -0.169810
v -0.271013 0.707258 -0.169810
vt 0.090881 0.436963
vt 0.071944 0.466373
vt 0.071944 0.436963
vt 0.090881 0.466373
vt 0.071944 0.474746
vt 0.090881 0.474746
vt 0.071944 0.482875
vt 0.090881 0.482875
vt 0.071944 0.619121
vt 0.090881 0.619121
vt 0.071944 0.627250
vt 0.090881 0.627250
vt 0.071944 0.635623
vt 0.090881 0.635623
vt 0.090881 0.670422
vt 0.071944 0.670422
vn 0.000000 0.468024 -0.883716
vn 0.000000 0.468994 -0.883201
vn 0.000000 0.468024 -0.883716
vn 0.000000 0.471456 -0.881890
vn 0.000000 0.637177 -0.770717
vn 0.000000 0.771706 -0.635979
vn 0.000000 0.999835 -0.018187
vn 0.000000 0.999989 -0.004664
vn 0.000000 0.999989 0.004664
vn 0.000000 0.999835 0.018179
vn 0.000000 0.774815 0.632188
vn 0.000000 0.639435 0.768845
vn 0.000000 0.365623 0.930763
vn 0.000000 0.365623 0.930763
vn 0.000000 0.353299 0.935510
vn 0.000000 0.353299 0.935510
f 1/1/1 2/2/2 3/3/3
f 4/4/4 2/2/2 1/1/1
f 4/4/4 5/5/5 2/2/2
f 6/6/6 5/5/5 4/4/4
f 5/5/5 6/6/6 7/7/7
f 7/7/7 6/6/6 8/8/8
f 8/8/8 9/9/9 7/7/7
f 10/10/10 9/9/9 8/8/8
f 10/10/10 11/11/11 9/9/9
f 12/12/12 11/11/11 10/10/10
f 11/11/11 12/12/12 13/13/13
f 13/13/13 12/12/12 14/14/14
f 14/14/14 15/15/15 13/13/13
f 13/13/13 15/15/15 16/16/16
