# Exported by s4extract — 1_mlod00_g01_part185
o 1_mlod00_g01_part185
v 0.310688 0.689007 -0.169810
v 0.348532 0.553806 -0.151743
v 0.348532 0.689007 -0.169810
v 0.310688 0.516084 -0.149179
v 0.348532 0.516084 -0.149179
vt 0.863904 0.323643
vt 0.882811 0.256053
vt 0.882811 0.323643
vt 0.863904 0.237176
vt 0.882811 0.237176
vn -0.028488 0.124565 0.991802
vn -0.025402 0.118430 0.992637
vn 0.000000 0.132457 0.991189
vn -0.041727 0.109356 0.993126
vn 0.000000 0.067805 0.997699
f 1/1/1 2/2/2 3/3/3
f 4/4/4 2/2/2 1/1/1
f 2/2/2 4/4/4 5/5/5
