# Exported by s4extract — 1_mlod00_g01_part49
o 1_mlod00_g01_part49
v 0.478911 0.716780 -0.040347
v 0.473784 0.742965 -0.028444
v 0.473784 0.716780 -0.028444
v 0.478911 0.742965 -0.040347
v 0.474089 0.716780 -0.052493
v 0.474089 0.742965 -0.052493
vt 0.058426 0.003412
vt 0.050205 0.021345
vt 0.050205 0.003412
vt 0.058426 0.021345
vt 0.066677 0.003412
vt 0.066677 0.021345
vn 0.988776 0.000000 0.149408
vn 0.918413 0.000000 0.395624
vn 0.918413 0.000000 0.395624
vn 0.992304 0.000000 -0.123829
vn 0.929440 0.000000 -0.368974
vn 0.929440 0.000000 -0.368974
f 1/1/1 2/2/2 3/3/3
f 4/4/4 2/2/2 1/1/1
f 5/5/5 4/4/4 1/1/1
f 6/6/6 4/4/4 5/5/5
