# Exported by s4extract — 1_mlod00_g01_part125
o 1_mlod00_g01_part125
v 0.233169 0.631569 -0.141671
v 0.271013 0.631569 -0.034487
v 0.233169 0.631569 -0.034487
v 0.271013 0.631569 -0.141671
v 0.233169 0.638650 -0.155527
v 0.271013 0.638650 -0.155527
v 0.233169 0.652628 -0.164195
v 0.271013 0.652628 -0.164195
vt 0.336854 0.593668
vt 0.317917 0.540083
vt 0.336854 0.540083
vt 0.317917 0.593668
vt 0.336854 0.602223
vt 0.317917 0.602223
vt 0.336854 0.610200
vt 0.317917 0.610200
vn 0.000000 -0.999519 -0.031009
vn 0.000000 -1.000000 0.000000
vn 0.000000 -1.000000 0.000000
vn 0.000000 -0.994535 -0.104404
vn 0.000000 -0.790993 -0.611825
vn 0.000000 -0.664929 -0.746907
vn 0.000000 -0.526993 -0.849869
vn 0.000000 -0.526993 -0.849869
f 1/1/1 2/2/2 3/3/3
f 4/4/4 2/2/2 1/1/1
f 1/1/1 5/5/5 4/4/4
f 4/4/4 5/5/5 6/6/6
f 7/7/7 6/6/6 5/5/5
f 8/8/8 6/6/6 7/7/7
