# Exported by s4extract — 1_mlod00_g01_part108
o 1_mlod00_g01_part108
v -0.271013 0.712629 0.165537
v -0.271013 0.720869 0.176830
v -0.271013 0.714765 0.161082
v -0.271013 0.707258 0.167185
v -0.271013 0.707258 0.182140
v -0.271013 0.652628 0.153269
v -0.271013 0.652628 0.138253
vt 0.014645 0.484519
vt 0.021799 0.484519
vt 0.014645 0.499529
vt 0.014645 0.470545
vt 0.021799 0.470545
vt 0.021799 0.437237
vt 0.014645 0.437237
vn -1.000000 0.000000 0.000000
vn -1.000000 0.000000 0.000000
vn -1.000000 0.000000 0.000000
vn -1.000000 0.000000 0.000000
vn -1.000000 0.000000 0.000000
vn -1.000000 0.000000 0.000000
vn -1.000000 0.000000 0.000000
f 1/1/1 2/2/2 3/3/3
f 1/1/1 4/4/4 2/2/2
f 2/2/2 4/4/4 5/5/5
f 4/4/4 6/6/6 5/5/5
f 7/7/7 6/6/6 4/4/4
