# Exported by s4extract — 1_mlod00_g02_part77
o 1_mlod00_g02_part77
v 0.526888 0.976988 -0.074651
v 0.528169 0.979247 -0.056522
v 0.533541 0.978148 -0.065983
v 0.518220 0.978758 -0.059391
v 0.517427 0.977416 -0.070561
vt 0.296358 0.417278
vt 0.306261 0.402029
vt 0.312397 0.411446
vt 0.286425 0.402029
vt 0.280319 0.411446
vn -0.011408 0.992508 -0.121645
vn -0.013255 0.992357 -0.122690
vn -0.013134 0.992357 -0.122698
vn -0.010747 0.992565 -0.121242
vn -0.006554 0.992885 -0.118898
f 1/1/1 2/2/2 3/3/3
f 1/1/1 4/4/4 2/2/2
f 5/5/5 4/4/4 1/1/1
