# Exported by s4extract — 1_mlod00_g01_part100
o 1_mlod00_g01_part100
v -0.233169 0.620582 0.021730
v -0.196545 0.620582 -0.034487
v -0.196545 0.620582 0.021730
v -0.233169 0.620582 -0.034487
v -0.271013 0.620582 -0.034487
v -0.271013 0.620582 0.021730
vt 0.092860 0.693988
vt 0.111158 0.722089
vt 0.111158 0.693988
vt 0.092860 0.722089
vt 0.073923 0.722089
vt 0.073923 0.693988
vn 0.000000 -1.000000 0.000000
vn 0.000000 -1.000000 0.000000
vn 0.000000 -1.000000 0.000000
vn 0.000000 -1.000000 0.000000
vn 0.000000 -1.000000 0.000000
vn 0.000000 -1.000000 0.000000
f 1/1/1 2/2/2 3/3/3
f 4/4/4 2/2/2 1/1/1
f 1/1/1 5/5/5 4/4/4
f 6/6/6 5/5/5 1/1/1
