# Exported by s4extract — 1_mlod00_g01_part227
o 1_mlod00_g01_part227
v 0.000000 0.616432 -0.036196
v -0.138802 0.616432 -0.165660
v 0.000000 0.616432 -0.180553
v -0.172984 0.616432 -0.143502
v -0.214491 0.616432 -0.100897
v -0.214491 0.616432 0.093451
v -0.207227 0.616432 0.114692
v -0.199963 0.616432 0.135873
v -0.180187 0.616432 0.146982
v -0.160410 0.616432 0.158030
v 0.000000 0.616432 0.171092
vt 0.768730 0.807399
vt 0.718403 0.743340
vt 0.712618 0.807399
vt 0.727019 0.727569
vt 0.743582 0.714904
vt 0.819118 0.708388
vt 0.827369 0.711768
vt 0.835620 0.715117
vt 0.839913 0.724251
vt 0.844236 0.733354
vt 0.849321 0.807399
vn 0.000000 -1.000000 0.000000
vn 0.000000 -1.000000 0.000000
vn 0.000000 -1.000000 0.000000
vn 0.000000 -1.000000 0.000000
vn 0.000000 -1.000000 0.000000
vn 0.000000 -1.000000 0.000000
vn 0.000000 -1.000000 0.000000
vn 0.000000 -1.000000 0.000000
vn 0.000000 -1.000000 0.000000
vn 0.000000 -1.000000 0.000000
vn 0.000000 -1.000000 0.000000
f 1/1/1 2/2/2 3/3/3
f 1/1/1 4/4/4 2/2/2
f 1/1/1 5/5/5 4/4/4
f 1/1/1 6/6/6 5/5/5
f 1/1/1 7/7/7 6/6/6
f 1/1/1 8/8/8 7/7/7
f 1/1/1 9/9/9 8/8/8
f 1/1/1 10/10/10 9/9/9
f 10/10/10 1/1/1 11/11/11
