# Exported by s4extract — 1_mlod00_g02_part42
o 1_mlod00_g02_part42
v 0.564060 1.438870 0.193859
v 0.567295 1.454251 0.225844
v 0.567112 1.447537 0.225722
v 0.564854 1.465849 0.194226
v 0.561680 1.450406 0.162302
v 0.561863 1.457181 0.162363
vt 0.456050 0.905224
vt 0.395296 0.922539
vt 0.395296 0.915613
vt 0.456050 0.932928
vt 0.516804 0.915613
vt 0.516804 0.922539
vn 0.995859 -0.027835 -0.086544
vn 0.995787 -0.027596 -0.087448
vn 0.995755 -0.025549 -0.088429
vn 0.995877 -0.027898 -0.086317
vn 0.995943 -0.027732 -0.085608
vn 0.995920 -0.026139 -0.086376
f 1/1/1 2/2/2 3/3/3
f 4/4/4 2/2/2 1/1/1
f 1/1/1 5/5/5 4/4/4
f 4/4/4 5/5/5 6/6/6
