# Exported by s4extract — 1_mlod00_g01_part21
o 1_mlod00_g01_part21
v 0.521333 0.733687 0.123482
v 0.521333 0.718550 0.123482
v 0.513947 0.733687 0.106696
v 0.513947 0.718550 0.106696
v 0.496612 0.733687 0.098944
v 0.496612 0.718550 0.098944
vt 0.037022 0.037359
vt 0.037022 0.046341
vt 0.026153 0.037359
vt 0.026153 0.046341
vt 0.014919 0.037359
vt 0.014919 0.046341
vn 0.915315 0.000000 -0.402739
vn 0.915315 0.000000 -0.402739
vn 0.789666 0.000000 -0.613537
vn 0.608987 0.000000 -0.793180
vn 0.408225 0.000000 -0.912881
vn 0.408225 0.000000 -0.912881
f 1/1/1 2/2/2 3/3/3
f 3/3/3 2/2/2 4/4/4
f 3/3/3 4/4/4 5/5/5
f 5/5/5 4/4/4 6/6/6
