# Exported by s4extract — 1_mlod00_g01_part202
o 1_mlod00_g01_part202
v 0.348532 0.689007 0.182140
v 0.310688 0.702558 0.176830
v 0.310688 0.689007 0.182140
v 0.348532 0.702558 0.176830
v 0.310688 0.711469 0.161082
v 0.348532 0.711469 0.161082
v 0.348532 0.711469 -0.162302
v 0.310688 0.711469 -0.162302
v 0.348532 0.702985 -0.176097
v 0.310688 0.702985 -0.176097
v 0.348532 0.689007 -0.184765
v 0.310688 0.689007 -0.184765
vt 0.739928 0.341332
vt 0.721021 0.347299
vt 0.721021 0.341332
vt 0.739928 0.347299
vt 0.721021 0.353145
vt 0.739928 0.353145
vt 0.739928 0.514843
vt 0.721021 0.514843
vt 0.739928 0.520994
vt 0.721021 0.520994
vt 0.739928 0.526596
vt 0.721021 0.526596
vn 0.000000 0.364874 0.931057
vn 0.000000 0.590771 0.806840
vn 0.000000 0.364874 0.931057
vn 0.000000 0.761036 0.648710
vn 0.000000 0.999655 0.026269
vn 0.000000 0.999655 0.026269
vn 0.000000 0.999918 -0.012843
vn 0.000000 0.998833 -0.048291
vn 0.000000 0.760611 -0.649208
vn 0.000000 0.649532 -0.760334
vn 0.000000 0.526993 -0.849869
vn 0.000000 0.526993 -0.849869
f 1/1/1 2/2/2 3/3/3
f 4/4/4 2/2/2 1/1/1
f 4/4/4 5/5/5 2/2/2
f 6/6/6 5/5/5 4/4/4
f 6/6/6 7/7/7 5/5/5
f 5/5/5 7/7/7 8/8/8
f 9/9/9 8/8/8 7/7/7
f 10/10/10 8/8/8 9/9/9
f 9/9/9 11/11/11 10/10/10
f 10/10/10 11/11/11 12/12/12
