# Exported by s4extract — 1_mlod00_g02_part65
o 1_mlod00_g02_part65
v 0.529940 0.815052 -0.067204
v 0.531160 0.817555 -0.053226
v 0.530611 0.811207 -0.059330
v 0.530062 0.823842 -0.065983
v 0.530794 0.825429 -0.057377
vt 0.482630 0.977521
vt 0.467897 0.987637
vt 0.467897 0.979890
vt 0.491743 0.983779
vt 0.482630 0.990036
vn 0.996241 -0.002285 -0.086599
vn 0.996279 -0.001234 -0.086175
vn 0.996251 -0.003082 -0.086457
vn 0.996289 -0.000535 -0.086069
vn 0.996374 0.001498 -0.085074
f 1/1/1 2/2/2 3/3/3
f 4/4/4 2/2/2 1/1/1
f 5/5/5 2/2/2 4/4/4
