# Exported by s4extract — 1_mlod00_g01_part107
o 1_mlod00_g01_part107
v -0.271013 0.714765 0.161082
v -0.271013 0.720869 0.176830
v -0.271013 0.729781 0.161082
v -0.271013 0.714765 -0.162302
v -0.271013 0.729781 -0.162302
v -0.271013 0.721235 -0.176097
vt 0.014645 0.499529
vt 0.021799 0.484519
vt 0.021799 0.499529
vt 0.014645 0.661197
vt 0.021799 0.661197
vt 0.021799 0.675233
vn -1.000000 0.000000 0.000000
vn -1.000000 0.000000 0.000000
vn -1.000000 0.000000 0.000000
vn -1.000000 0.000000 0.000000
vn -1.000000 0.000000 0.000000
vn -1.000000 0.000000 0.000000
f 1/1/1 2/2/2 3/3/3
f 1/1/1 3/3/3 4/4/4
f 4/4/4 3/3/3 5/5/5
f 5/5/5 6/6/6 4/4/4
