# Exported by s4extract — 1_mlod00_g01_part249
o 1_mlod00_g01_part249
v 0.384545 0.751999 -0.016847
v 0.365257 0.752487 -0.015748
v 0.355490 0.751999 0.000916
v 0.369224 0.752487 -0.023073
v 0.365318 0.752487 -0.029360
v 0.366783 0.751999 -0.045840
v 0.356955 0.752487 -0.015504
v 0.337728 0.751999 -0.028078
v 0.357016 0.752487 -0.029177
v 0.353049 0.752487 -0.021852
vt 0.187608 0.049172
vt 0.181367 0.037512
vt 0.187608 0.025851
vt 0.179753 0.041348
vt 0.172111 0.041348
vt 0.164256 0.049172
vt 0.179753 0.033675
vt 0.164256 0.025851
vt 0.170528 0.037512
vt 0.172111 0.033675
vn 0.034464 0.999385 0.006482
vn 0.021180 0.999178 0.034551
vn -0.006867 0.999383 0.034452
vn 0.031798 0.999494 0.000143
vn 0.031492 0.999142 -0.026892
vn 0.006891 0.999385 -0.034378
vn -0.031535 0.999140 0.026928
vn -0.034505 0.999384 -0.006483
vn -0.021107 0.999181 -0.034516
vn -0.031799 0.999494 -0.000142
f 1/1/1 2/2/2 3/3/3
f 1/1/1 4/4/4 2/2/2
f 1/1/1 5/5/5 4/4/4
f 6/6/6 5/5/5 1/1/1
f 3/3/3 2/2/2 7/7/7
f 3/3/3 7/7/7 8/8/8
f 6/6/6 9/9/9 5/5/5
f 8/8/8 9/9/9 6/6/6
f 8/8/8 7/7/7 10/10/10
f 8/8/8 10/10/10 9/9/9
