# Exported by s4extract — 1_mlod00_g01_part14
o 1_mlod00_g01_part14
v 0.438686 0.733687 0.037905
v 0.421473 0.718550 0.030214
v 0.438686 0.718550 0.037905
v 0.421473 0.733687 0.030214
v 0.414027 0.733687 0.013429
v 0.421473 0.733687 0.030214
v 0.414027 0.718550 0.013429
v 0.421473 0.718550 -0.003357
v 0.414027 0.718550 0.013429
v 0.421473 0.733687 -0.003357
vt 0.059126 0.037359
vt 0.070330 0.046341
vt 0.059126 0.046341
vt 0.070330 0.037359
vt 0.081199 0.037359
vt 0.070330 0.037359
vt 0.081199 0.046341
vt 0.092069 0.046341
vt 0.081199 0.046341
vt 0.092069 0.037359
vn -0.407940 0.000000 0.913009
vn -0.704467 0.000000 0.709737
vn -0.407940 0.000000 0.913009
vn -0.407940 0.000000 0.913009
vn -1.000000 0.000000 0.000000
vn -0.914085 0.000000 0.405522
vn -0.914085 0.000000 0.405522
vn -0.914085 0.000000 -0.405522
vn -0.914085 0.000000 -0.405522
vn -0.914085 0.000000 -0.405522
f 1/1/1 2/2/2 3/3/3
f 4/4/4 2/2/2 1/1/1
f 5/5/5 2/2/2 6/6/6
f 7/7/7 2/2/2 5/5/5
f 5/5/5 8/8/8 9/9/9
f 10/10/10 8/8/8 5/5/5
