# Exported by s4extract — 1_mlod00_g01_part33
o 1_mlod00_g01_part33
v 0.378075 0.882378 0.048404
v 0.367637 0.859061 0.060978
v 0.361350 0.881340 0.052677
v 0.381737 0.859550 0.057254
v 0.395288 0.735702 0.083684
v 0.379601 0.731002 0.087652
vt 0.191444 0.233858
vt 0.197351 0.220766
vt 0.197259 0.233919
vt 0.192388 0.220949
vt 0.192205 0.182800
vt 0.197747 0.181643
vn -0.213380 -0.387999 -0.896619
vn -0.208786 -0.249563 -0.945583
vn -0.204812 -0.391978 -0.896886
vn -0.238761 -0.253497 -0.937407
vn -0.207361 -0.221854 -0.952776
vn -0.177897 -0.216565 -0.959923
f 1/1/1 2/2/2 3/3/3
f 4/4/4 2/2/2 1/1/1
f 5/5/5 2/2/2 4/4/4
f 6/6/6 2/2/2 5/5/5
