# Exported by s4extract — 1_mlod00_g01_part199
o 1_mlod00_g01_part199
v 0.348532 0.689007 0.182140
v 0.348532 0.689007 0.167185
v 0.348532 0.702558 0.176830
v 0.348532 0.694378 0.165537
v 0.348532 0.696454 0.161082
vt 0.739928 0.341332
vt 0.747814 0.341332
vt 0.739928 0.347299
vt 0.747814 0.347299
vt 0.747814 0.353145
vn 1.000000 0.000000 0.000000
vn 1.000000 0.000000 0.000000
vn 1.000000 0.000000 0.000000
vn 1.000000 0.000000 0.000000
vn 1.000000 0.000000 0.000000
f 1/1/1 2/2/2 3/3/3
f 3/3/3 2/2/2 4/4/4
f 5/5/5 3/3/3 4/4/4
