# Exported by s4extract — 1_mlod00_g01_part226
o 1_mlod00_g01_part226
v -0.172984 0.616432 -0.143502
v -0.172984 0.633156 -0.143502
v -0.138802 0.616432 -0.165660
v -0.138802 0.633156 -0.165660
v 0.000000 0.616432 -0.180553
v 0.000000 0.633156 -0.180553
v 0.138802 0.616432 -0.165660
v 0.138802 0.633156 -0.165660
v 0.172984 0.616432 -0.143502
v 0.172984 0.633156 -0.143502
v 0.214491 0.616432 -0.100897
v 0.214491 0.633156 -0.100897
v 0.214491 0.633156 0.093451
v 0.214491 0.616432 0.093451
v 0.199963 0.616432 0.135873
v 0.199963 0.633156 0.135873
v 0.180187 0.616432 0.146982
v 0.180187 0.633156 0.146982
v 0.160410 0.616432 0.158030
v 0.160410 0.633156 0.158030
v 0.000000 0.616432 0.171092
v 0.000000 0.633156 0.171092
v -0.160410 0.616432 0.158030
v -0.160410 0.633156 0.158030
v -0.180187 0.616432 0.146982
v -0.180187 0.633156 0.146982
v -0.199963 0.616432 0.135873
v -0.199963 0.633156 0.135873
v -0.207227 0.616432 0.114692
v -0.207227 0.633156 0.114692
v -0.214491 0.616432 0.093451
v -0.214491 0.633156 0.093451
v -0.214491 0.616432 -0.100897
v -0.214491 0.633156 -0.100897
v -0.172984 0.616432 -0.143502
v -0.172984 0.633156 -0.143502
vt 0.334814 0.016961
vt 0.334814 0.028895
vt 0.351895 0.016961
vt 0.351895 0.028895
vt 0.421281 0.016961
vt 0.421281 0.028895
vt 0.490698 0.016961
vt 0.490698 0.028895
vt 0.507778 0.016961
vt 0.507778 0.028895
vt 0.529090 0.016961
vt 0.529090 0.028895
vt 0.626274 0.028895
vt 0.626274 0.016961
vt 0.647525 0.016961
vt 0.647525 0.028895
vt 0.657389 0.016961
vt 0.657389 0.028895
vt 0.667284 0.016961
vt 0.667284 0.028895
vt 0.747479 0.016961
vt 0.747479 0.028895
vt 0.827704 0.016961
vt 0.827704 0.028895
vt 0.837599 0.016961
vt 0.837599 0.028895
vt 0.847464 0.016961
vt 0.847464 0.028895
vt 0.858059 0.016961
vt 0.858059 0.028895
vt 0.868624 0.016961
vt 0.868624 0.028895
vt 0.965838 0.016961
vt 0.965838 0.028895
vt 0.987119 0.016961
vt 0.987119 0.028895
vn -0.543935 0.000000 -0.839128
vn -0.543935 0.000000 -0.839128
vn -0.274796 0.000000 -0.961503
vn -0.164336 0.000000 -0.986404
vn -0.035744 0.000000 -0.999361
vn 0.035744 0.000000 -0.999361
vn 0.164336 0.000000 -0.986404
vn 0.274796 0.000000 -0.961503
vn 0.620435 0.000000 -0.784258
vn 0.675516 0.000000 -0.737345
vn 0.985002 0.000000 -0.172540
vn 0.985002 0.000000 -0.172540
vn 0.998123 0.000000 0.061241
vn 0.998123 0.000000 0.061241
vn 0.891230 0.000000 0.453552
vn 0.766973 0.000000 0.641679
vn 0.489068 0.000000 0.872246
vn 0.488385 0.000000 0.872628
vn 0.173168 0.000000 0.984892
vn 0.108496 0.000000 0.994097
vn 0.027134 0.000000 0.999632
vn -0.027134 0.000000 0.999632
vn -0.108496 0.000000 0.994097
vn -0.173168 0.000000 0.984892
vn -0.488385 0.000000 0.872628
vn -0.489068 0.000000 0.872246
vn -0.679827 0.000000 0.733372
vn -0.841678 0.000000 0.539980
vn -0.946018 0.000000 0.324115
vn -0.946113 0.000000 0.323837
vn -0.998124 0.000000 0.061225
vn -0.999843 0.000000 0.017716
vn -0.995401 0.000000 -0.095793
vn -0.958629 0.000000 -0.284658
vn -0.716282 0.000000 -0.697811
vn -0.716282 0.000000 -0.697811
f 1/1/1 2/2/2 3/3/3
f 3/3/3 2/2/2 4/4/4
f 3/3/3 4/4/4 5/5/5
f 5/5/5 4/4/4 6/6/6
f 6/6/6 7/7/7 5/5/5
f 8/8/8 7/7/7 6/6/6
f 7/7/7 8/8/8 9/9/9
f 9/9/9 8/8/8 10/10/10
f 9/9/9 10/10/10 11/11/11
f 11/11/11 10/10/10 12/12/12
f 13/13/13 11/11/11 12/12/12
f 14/14/14 11/11/11 13/13/13
f 14/14/14 13/13/13 15/15/15
f 15/15/15 13/13/13 16/16/16
f 15/15/15 16/16/16 17/17/17
f 17/17/17 16/16/16 18/18/18
f 17/17/17 18/18/18 19/19/19
f 19/19/19 18/18/18 20/20/20
f 19/19/19 20/20/20 21/21/21
f 21/21/21 20/20/20 22/22/22
f 22/22/22 23/23/23 21/21/21
f 24/24/24 23/23/23 22/22/22
f 23/23/23 24/24/24 25/25/25
f 25/25/25 24/24/24 26/26/26
f 25/25/25 26/26/26 27/27/27
f 27/27/27 26/26/26 28/28/28
f 27/27/27 28/28/28 29/29/29
f 29/29/29 28/28/28 30/30/30
f 29/29/29 30/30/30 31/31/31
f 31/31/31 30/30/30 32/32/32
f 31/31/31 32/32/32 33/33/33
f 33/33/33 32/32/32 34/34/34
f 33/33/33 34/34/34 35/35/35
f 35/35/35 34/34/34 36/36/36
