# Exported by s4extract — 1_mlod00_g02_part64
o 1_mlod00_g02_part64
v 0.490081 0.823842 -0.062504
v 0.491241 0.817555 -0.049747
v 0.490814 0.825429 -0.053836
v 0.490020 0.815052 -0.063725
v 0.490692 0.811207 -0.055851
vt 0.491652 0.963365
vt 0.467806 0.959477
vt 0.482539 0.957108
vt 0.482539 0.969623
vt 0.467806 0.967223
vn -0.996170 -0.006887 0.087167
vn -0.996202 -0.004155 0.086973
vn -0.996257 -0.009436 0.085919
vn -0.996173 -0.002112 0.087380
vn -0.996251 0.003082 0.086457
f 1/1/1 2/2/2 3/3/3
f 4/4/4 2/2/2 1/1/1
f 4/4/4 5/5/5 2/2/2
