# Exported by s4extract — 1_mlod00_g01_part65
o 1_mlod00_g01_part65
v 0.503021 0.843374 -0.005799
v 0.499176 0.843374 -0.018495
v 0.505890 0.824330 -0.008912
v 0.503327 0.824330 -0.017579
v 0.503571 0.767076 -0.017518
v 0.506073 0.767076 -0.009034
v 0.509614 0.824330 -0.024232
v 0.503327 0.824330 -0.017579
v 0.509675 0.767076 -0.023988
v 0.514802 0.767076 -0.007019
v 0.505890 0.824330 -0.008912
v 0.508393 0.843374 -0.028261
v 0.499176 0.843374 -0.018495
v 0.514863 0.824330 -0.006775
v 0.516084 0.843374 -0.002808
v 0.503021 0.843374 -0.005799
vt 0.183254 0.088387
vt 0.179266 0.088387
vt 0.181610 0.081871
vt 0.178444 0.081871
vt 0.178170 0.061259
vt 0.181275 0.061259
vt 0.175095 0.081871
vt 0.178444 0.081871
vt 0.175095 0.061259
vt 0.184411 0.061259
vt 0.181610 0.081871
vt 0.175095 0.088387
vt 0.179266 0.088387
vt 0.184533 0.081871
vt 0.187121 0.088387
vt 0.183254 0.088387
vn -0.939973 -0.188136 0.284703
vn -0.940453 -0.189598 0.282136
vn -0.957007 -0.059149 0.283971
vn -0.957660 -0.051536 0.283252
vn -0.971950 -0.004324 -0.235149
vn -0.682879 -0.003742 0.730522
vn -0.726719 -0.030906 -0.686239
vn -0.724116 -0.088145 -0.684022
vn -0.727389 -0.003702 -0.686216
vn -0.228289 -0.003357 0.973588
vn -0.227420 -0.058149 0.972059
vn -0.714091 -0.188231 -0.674272
vn -0.714285 -0.188087 -0.674107
vn -0.231334 -0.049746 0.971602
vn -0.222614 -0.187482 0.956710
vn -0.219153 -0.189465 0.957118
f 1/1/1 2/2/2 3/3/3
f 3/3/3 2/2/2 4/4/4
f 4/4/4 5/5/5 3/3/3
f 3/3/3 5/5/5 6/6/6
f 7/7/7 5/5/5 8/8/8
f 9/9/9 5/5/5 7/7/7
f 6/6/6 10/10/10 11/11/11
f 7/7/7 8/8/8 12/12/12
f 12/12/12 8/8/8 13/13/13
f 11/11/11 10/10/10 14/14/14
f 11/11/11 15/15/15 16/16/16
f 14/14/14 15/15/15 11/11/11
