# Exported by s4extract — 1_mlod00_g02_part10
o 1_mlod00_g02_part10
v 0.463468 1.496918 0.205274
v 0.491119 1.475066 0.197888
v 0.479705 1.470244 0.192639
v 0.474821 1.501373 0.210767
v 0.458402 1.513520 0.236648
v 0.446866 1.508515 0.232253
v 0.447476 1.505341 0.268571
v 0.436245 1.500580 0.263322
v 0.447415 1.480864 0.290728
v 0.435757 1.476103 0.286578
v 0.456937 1.449368 0.297626
v 0.445523 1.444485 0.293170
vt 0.324700 0.773874
vt 0.401554 0.879737
vt 0.401554 0.773874
vt 0.324700 0.879737
vt 0.247816 0.879737
vt 0.247816 0.773874
vt 0.170962 0.879737
vt 0.170962 0.773874
vt 0.094078 0.879737
vt 0.094078 0.773874
vt 0.017224 0.879737
vt 0.017224 0.773874
vn 0.019646 0.721858 -0.691763
vn 0.184397 0.516049 -0.836475
vn 0.174516 0.506269 -0.844533
vn 0.045274 0.728014 -0.684066
vn -0.254746 0.918899 -0.301213
vn -0.360837 0.926516 -0.106601
vn -0.481636 0.832301 0.274413
vn -0.499717 0.728526 0.468543
vn -0.477624 0.441092 0.759811
vn -0.428657 0.269997 0.862180
vn -0.378076 0.081556 0.922175
vn -0.389051 0.071321 0.918451
f 1/1/1 2/2/2 3/3/3
f 4/4/4 2/2/2 1/1/1
f 1/1/1 5/5/5 4/4/4
f 6/6/6 5/5/5 1/1/1
f 6/6/6 7/7/7 5/5/5
f 8/8/8 7/7/7 6/6/6
f 8/8/8 9/9/9 7/7/7
f 10/10/10 9/9/9 8/8/8
f 10/10/10 11/11/11 9/9/9
f 12/12/12 11/11/11 10/10/10
