# Exported by s4extract — 1_mlod00_g01_part46
o 1_mlod00_g01_part46
v 0.414210 0.761338 -0.072270
v 0.350424 0.761338 -0.072270
v 0.382287 0.761338 -0.059086
v 0.427455 0.761338 -0.104193
v 0.337179 0.761338 -0.104193
v 0.350424 0.761338 -0.136056
v 0.414210 0.761338 -0.136056
v 0.382287 0.761338 -0.149301
vt 0.270208 0.183439
vt 0.236504 0.183439
vt 0.253432 0.176619
vt 0.277028 0.200215
vt 0.229380 0.200215
vt 0.236200 0.217112
vt 0.269873 0.217112
vt 0.252976 0.224237
vn 0.000000 1.000000 0.000000
vn 0.000000 1.000000 0.000000
vn 0.000000 1.000000 0.000000
vn 0.000000 1.000000 0.000000
vn 0.000000 1.000000 0.000000
vn 0.000000 1.000000 0.000000
vn 0.000000 1.000000 0.000000
vn 0.000000 1.000000 0.000000
f 1/1/1 2/2/2 3/3/3
f 1/1/1 4/4/4 2/2/2
f 2/2/2 4/4/4 5/5/5
f 5/5/5 4/4/4 6/6/6
f 6/6/6 4/4/4 7/7/7
f 6/6/6 7/7/7 8/8/8
