# Exported by s4extract — 1_mlod00_g01_part38
o 1_mlod00_g01_part38
v 0.380455 0.956418 0.044009
v 0.375084 0.932064 0.021364
v 0.368736 0.952573 0.031984
v 0.397241 0.939266 0.043948
v 0.397729 0.907404 0.050296
v 0.377464 0.900873 0.029543
v 0.378075 0.882378 0.048404
v 0.389855 0.886162 0.060428
vt 0.137068 0.128636
vt 0.152504 0.126870
vt 0.138895 0.134299
vt 0.145897 0.118681
vt 0.149246 0.104036
vt 0.159537 0.109577
vt 0.156340 0.093289
vt 0.147724 0.090061
vn 0.524811 0.514673 -0.678000
vn 0.691757 0.112656 -0.713289
vn 0.526472 0.513756 -0.677408
vn 0.681845 0.148425 -0.716281
vn 0.729567 -0.266994 -0.629640
vn 0.728527 -0.293100 -0.619145
vn 0.691536 -0.503983 -0.517474
vn 0.691058 -0.503525 -0.518556
f 1/1/1 2/2/2 3/3/3
f 4/4/4 2/2/2 1/1/1
f 5/5/5 2/2/2 4/4/4
f 6/6/6 2/2/2 5/5/5
f 5/5/5 7/7/7 6/6/6
f 8/8/8 7/7/7 5/5/5
