# Exported by s4extract — 1_mlod00_g01_part204
o 1_mlod00_g01_part204
v 0.310688 0.689007 0.167185
v 0.348532 0.694378 0.165537
v 0.348532 0.689007 0.167185
v 0.310688 0.694378 0.165537
v 0.348532 0.696454 0.161082
v 0.310688 0.696454 0.161082
v 0.310688 0.696454 -0.162302
v 0.348532 0.696454 -0.162302
v 0.310688 0.693890 -0.167002
v 0.348532 0.693890 -0.167002
v 0.310688 0.689007 -0.169810
v 0.348532 0.689007 -0.169810
vt 0.687805 0.341332
vt 0.706742 0.347299
vt 0.706742 0.341332
vt 0.687805 0.347299
vt 0.706742 0.353145
vt 0.687805 0.353145
vt 0.687805 0.514843
vt 0.706742 0.514843
vt 0.687805 0.520994
vt 0.706742 0.520994
vt 0.687805 0.526596
vt 0.706742 0.526596
vn 0.000000 -0.293322 -0.956014
vn 0.000000 -0.517489 -0.855690
vn 0.000000 -0.293322 -0.956014
vn 0.000000 -0.742653 -0.669676
vn 0.000000 -0.999980 -0.006330
vn 0.000000 -0.999980 -0.006330
vn 0.000000 -0.999992 0.003935
vn 0.000000 -0.999881 0.015405
vn 0.000000 -0.773268 0.634080
vn 0.000000 -0.641677 0.766975
vn 0.000000 -0.498471 0.866906
vn 0.000000 -0.498471 0.866906
f 1/1/1 2/2/2 3/3/3
f 4/4/4 2/2/2 1/1/1
f 4/4/4 5/5/5 2/2/2
f 6/6/6 5/5/5 4/4/4
f 6/6/6 7/7/7 5/5/5
f 5/5/5 7/7/7 8/8/8
f 7/7/7 9/9/9 8/8/8
f 8/8/8 9/9/9 10/10/10
f 9/9/9 11/11/11 10/10/10
f 10/10/10 11/11/11 12/12/12
