# Exported by s4extract — 1_mlod00_g02_part30
o 1_mlod00_g02_part30
v 0.495941 1.166941 -0.106940
v 0.501312 1.226210 -0.057987
v 0.497894 1.204541 -0.093267
v 0.496124 1.152414 -0.101325
v 0.502594 1.223341 -0.042117
v 0.499847 1.130013 -0.051883
v 0.504425 1.180553 -0.010316
v 0.504303 1.165660 -0.008301
v 0.501190 1.130440 -0.036562
vt 0.210756 0.529825
vt 0.121417 0.581010
vt 0.180561 0.561721
vt 0.202918 0.517978
vt 0.096903 0.578732
vt 0.111241 0.493129
vt 0.034296 0.537237
vt 0.031714 0.525147
vt 0.086939 0.493494
vn -0.996240 0.020833 0.084091
vn -0.996239 0.020743 0.084129
vn -0.996289 0.021444 0.083356
vn -0.996225 0.020477 0.084363
vn -0.996214 0.020490 0.084491
vn -0.996195 0.020303 0.084751
vn -0.996173 0.020318 0.085007
vn -0.996097 0.019180 0.086154
vn -0.996057 0.018397 0.086791
f 1/1/1 2/2/2 3/3/3
f 4/4/4 2/2/2 1/1/1
f 5/5/5 2/2/2 4/4/4
f 4/4/4 6/6/6 5/5/5
f 5/5/5 6/6/6 7/7/7
f 7/7/7 6/6/6 8/8/8
f 8/8/8 6/6/6 9/9/9
