# Exported by s4extract — 1_mlod00_g02_part00
o 1_mlod00_g02_part00
v 0.522432 0.743454 -0.070012
v 0.515962 0.743454 -0.144296
v 0.523164 0.750046 -0.061771
v 0.515962 0.743454 -0.144296
v 0.524446 0.825856 -0.049503
v 0.523653 0.833425 -0.058658
v 0.515962 0.771531 -0.144906
vt 0.080104 0.296195
vt 0.239644 0.296165
vt 0.062334 0.303121
vt 0.239644 0.296165
vt 0.035420 0.382527
vt 0.054648 0.390455
vt 0.239644 0.325600
vn 0.996226 -0.002228 -0.086771
vn 0.996226 -0.002228 -0.086771
vn 0.996228 -0.002767 -0.086728
vn 0.996201 -0.002422 -0.087048
vn 0.996212 -0.002589 -0.086914
vn 0.996158 -0.001814 -0.087557
vn 0.996166 -0.001901 -0.087466
f 1/1/1 2/2/2 3/3/3
f 3/3/3 4/4/4 5/5/5
f 6/6/6 5/5/5 4/4/4
f 6/6/6 4/4/4 7/7/7
