# Exported by s4extract — 1_mlod00_g01_part48
o 1_mlod00_g01_part48
v 0.461698 0.742965 -0.023561
v 0.444912 0.742965 -0.040835
v 0.449734 0.742965 -0.028749
v 0.473784 0.742965 -0.028444
v 0.450040 0.742965 -0.052799
v 0.462125 0.742965 -0.057621
v 0.478911 0.742965 -0.040347
v 0.474089 0.742965 -0.052493
vt 0.090333 0.005726
vt 0.073892 0.005726
vt 0.082143 0.002377
vt 0.093682 0.013916
vt 0.070391 0.013916
vt 0.073740 0.022197
vt 0.090181 0.022197
vt 0.081930 0.025668
vn 0.000000 1.000000 0.000000
vn 0.000000 1.000000 0.000000
vn 0.000000 1.000000 0.000000
vn 0.000000 1.000000 0.000000
vn 0.000000 1.000000 0.000000
vn 0.000000 1.000000 0.000000
vn 0.000000 1.000000 0.000000
vn 0.000000 1.000000 0.000000
f 1/1/1 2/2/2 3/3/3
f 1/1/1 4/4/4 2/2/2
f 2/2/2 4/4/4 5/5/5
f 5/5/5 4/4/4 6/6/6
f 6/6/6 4/4/4 7/7/7
f 6/6/6 7/7/7 8/8/8
