# Exported by s4extract — 1_mlod00_g01_part99
o 1_mlod00_g01_part99
v -0.233169 0.631569 0.021730
v -0.196545 0.620582 0.021730
v -0.196545 0.631569 0.021730
v -0.233169 0.620582 0.021730
v -0.271013 0.620582 0.021730
v -0.271013 0.631569 0.021730
vt 0.135150 0.642290
vt 0.153417 0.633705
vt 0.153417 0.642290
vt 0.135150 0.633705
vt 0.116212 0.633705
vt 0.116212 0.642290
vn 0.000000 0.000000 1.000000
vn 0.000000 0.000000 1.000000
vn 0.000000 0.000000 1.000000
vn 0.000000 0.000000 1.000000
vn 0.000000 0.000000 1.000000
vn 0.000000 0.000000 1.000000
f 1/1/1 2/2/2 3/3/3
f 4/4/4 2/2/2 1/1/1
f 1/1/1 5/5/5 4/4/4
f 6/6/6 5/5/5 1/1/1
