# Exported by s4extract — 1_mlod00_g02_part73
o 1_mlod00_g02_part73
v 0.502167 0.824452 -0.064518
v 0.491607 0.976988 -0.071538
v 0.501618 0.977416 -0.069157
v 0.492340 0.823781 -0.066838
v 0.487457 0.825734 -0.057316
v 0.491607 0.976988 -0.071538
v 0.486602 0.978148 -0.061893
vt 0.441773 0.430644
vt 0.411487 0.576089
vt 0.441773 0.576089
vt 0.411487 0.430644
vt 0.381231 0.430644
vt 0.411487 0.576089
vt 0.381231 0.576089
vn 0.231950 -0.028687 -0.972305
vn 0.231950 -0.028687 -0.972305
vn 0.232415 -0.028649 -0.972195
vn -0.441633 -0.029620 -0.896707
vn -0.889762 -0.018465 -0.456050
vn -0.889762 -0.018465 -0.456050
vn -0.888349 -0.018761 -0.458786
f 1/1/1 2/2/2 3/3/3
f 4/4/4 2/2/2 1/1/1
f 5/5/5 6/6/6 4/4/4
f 7/7/7 6/6/6 5/5/5
