# Exported by s4extract — 1_mlod00_g01_part41
o 1_mlod00_g01_part41
v 0.452786 0.874321 0.049258
v 0.405664 0.718977 0.054447
v 0.405237 0.874321 0.030580
v 0.436184 0.718977 0.066471
v 0.473173 0.874321 0.096075
v 0.449307 0.718977 0.096502
vt 0.257999 0.168216
vt 0.299406 0.002651
vt 0.299406 0.168216
vt 0.257999 0.002651
vt 0.215923 0.168216
vt 0.215923 0.002651
vn 0.611493 -0.151323 -0.776645
vn 0.362350 -0.140688 -0.921363
vn 0.361984 -0.140582 -0.921523
vn 0.802217 -0.149655 -0.577971
vn 0.907525 -0.140679 -0.395736
vn 0.907242 -0.140474 -0.396457
f 1/1/1 2/2/2 3/3/3
f 2/2/2 1/1/1 4/4/4
f 5/5/5 4/4/4 1/1/1
f 4/4/4 5/5/5 6/6/6
