# Exported by s4extract — 1_mlod00_g01_part112
o 1_mlod00_g01_part112
v -0.271013 0.714765 -0.162302
v -0.271013 0.721235 -0.176097
v -0.271013 0.712141 -0.167002
v -0.271013 0.707258 -0.169810
v -0.271013 0.707258 -0.184765
v -0.271013 0.652628 -0.164195
v -0.271013 0.652628 -0.149179
vt 0.014645 0.661197
vt 0.021799 0.675233
vt 0.014645 0.675233
vt 0.014645 0.688903
vt 0.021799 0.688903
vt 0.021799 0.726230
vt 0.014645 0.726230
vn -1.000000 0.000000 0.000000
vn -1.000000 0.000000 0.000000
vn -1.000000 0.000000 0.000000
vn -1.000000 0.000000 0.000000
vn -1.000000 0.000000 0.000000
vn -1.000000 0.000000 0.000000
vn -1.000000 0.000000 0.000000
f 1/1/1 2/2/2 3/3/3
f 2/2/2 4/4/4 3/3/3
f 5/5/5 4/4/4 2/2/2
f 5/5/5 6/6/6 4/4/4
f 4/4/4 6/6/6 7/7/7
