# Exported by s4extract — 1_mlod00_g02_part78
o 1_mlod00_g02_part78
v 0.527010 0.823781 -0.069828
v 0.518464 0.826833 -0.054874
v 0.517732 0.824452 -0.065861
v 0.528230 0.827626 -0.052066
v 0.533480 0.825734 -0.061344
vt 0.353163 0.417278
vt 0.363066 0.402029
vt 0.369202 0.411446
vt 0.343260 0.402029
vt 0.337124 0.411446
vn 0.019146 -0.977438 0.210352
vn 0.019077 -0.977434 0.210378
vn 0.019277 -0.977407 0.210486
vn 0.019097 -0.977450 0.210300
vn 0.019329 -0.977449 0.210284
f 1/1/1 2/2/2 3/3/3
f 4/4/4 2/2/2 1/1/1
f 5/5/5 4/4/4 1/1/1
