# Exported by s4extract — 1_mlod00_g01_part154
o 1_mlod00_g01_part154
v -0.220411 0.713239 0.127327
v -0.226027 0.734420 0.127327
v -0.226210 0.714948 0.130562
v -0.230849 0.732283 0.130562
v -0.236404 0.743515 0.127327
v -0.239333 0.739669 0.130562
v -0.265458 0.739669 0.130562
v -0.268388 0.743515 0.127327
v -0.273943 0.732283 0.130562
v -0.278765 0.734420 0.127327
v -0.278581 0.714948 0.130562
v -0.284380 0.713239 0.127327
vt 0.409437 0.562431
vt 0.397655 0.562431
vt 0.409437 0.555580
vt 0.397655 0.555580
vt 0.389708 0.562431
vt 0.389708 0.555580
vt 0.371715 0.555580
vt 0.371715 0.562431
vt 0.363768 0.555580
vt 0.363768 0.562431
vt 0.351986 0.555580
vt 0.351986 0.562431
vn 0.512944 0.135997 0.847581
vn 0.480924 0.208401 0.851634
vn 0.511412 0.136160 0.848480
vn 0.434281 0.301802 0.848714
vn 0.124630 0.582066 0.803534
vn 0.124136 0.581697 0.803877
vn -0.067822 0.611516 0.788320
vn -0.178628 0.551099 0.815096
vn -0.434281 0.301802 0.848714
vn -0.480924 0.208401 0.851634
vn -0.511412 0.136160 0.848480
vn -0.512944 0.135997 0.847581
f 1/1/1 2/2/2 3/3/3
f 3/3/3 2/2/2 4/4/4
f 2/2/2 5/5/5 4/4/4
f 4/4/4 5/5/5 6/6/6
f 6/6/6 5/5/5 7/7/7
f 7/7/7 5/5/5 8/8/8
f 7/7/7 8/8/8 9/9/9
f 9/9/9 8/8/8 10/10/10
f 9/9/9 10/10/10 11/11/11
f 11/11/11 10/10/10 12/12/12
