# Exported by s4extract — 1_mlod00_g01_part178
o 1_mlod00_g01_part178
v 0.480010 0.499237 -0.158091
v 0.504914 0.508820 -0.164195
v 0.504914 0.499237 -0.158091
v 0.480010 0.508820 -0.164195
v 0.504914 0.689861 -0.164195
v 0.480010 0.689861 -0.164195
v 0.504914 0.711469 -0.164195
v 0.467863 0.711469 -0.164195
vt 0.764407 0.214342
vt 0.776859 0.219122
vt 0.776859 0.214342
vt 0.764407 0.219122
vt 0.776859 0.309668
vt 0.764407 0.309668
vt 0.776859 0.320385
vt 0.758348 0.320385
vn 0.000000 -0.537223 -0.843440
vn 0.000000 -0.060863 -0.998146
vn 0.000000 -0.537223 -0.843440
vn 0.000000 -0.016421 -0.999865
vn 0.000000 0.000000 -1.000000
vn 0.000000 0.000000 -1.000000
vn 0.000000 0.000000 -1.000000
vn 0.000000 0.000000 -1.000000
f 1/1/1 2/2/2 3/3/3
f 4/4/4 2/2/2 1/1/1
f 4/4/4 5/5/5 2/2/2
f 6/6/6 5/5/5 4/4/4
f 6/6/6 7/7/7 5/5/5
f 8/8/8 7/7/7 6/6/6
