# Exported by s4extract — 1_mlod00_g01_part51
o 1_mlod00_g01_part51
v 0.461698 0.742965 -0.023561
v 0.449734 0.742965 -0.028749
v 0.461698 0.716780 -0.023561
v 0.449734 0.716780 -0.028749
v 0.444912 0.716780 -0.040835
v 0.444912 0.742965 -0.040835
vt 0.041985 0.021345
vt 0.033734 0.021345
vt 0.041985 0.003412
vt 0.033734 0.003412
vt 0.025514 0.003412
vt 0.025514 0.021345
vn -0.397870 0.000000 0.917442
vn -0.717171 0.000000 0.696897
vn -0.397870 0.000000 0.917442
vn -0.717171 0.000000 0.696897
vn -0.928800 0.000000 0.370582
vn -0.928800 0.000000 0.370582
f 1/1/1 2/2/2 3/3/3
f 3/3/3 2/2/2 4/4/4
f 4/4/4 2/2/2 5/5/5
f 5/5/5 2/2/2 6/6/6
