# Exported by s4extract — 1_mlod00_g01_part84
o 1_mlod00_g01_part84
v -0.044864 0.278581 0.000000
v -0.031740 0.278581 0.031740
v -0.015870 0.278581 0.038332
v 0.000000 0.278581 0.044864
v 0.015870 0.278581 0.038332
v -0.031740 0.278581 -0.031740
v 0.000000 0.278581 -0.044864
v 0.031740 0.278581 -0.031740
v 0.044864 0.278581 0.000000
v 0.031740 0.278581 0.031740
vt 0.703667 0.696910
vt 0.685735 0.696910
vt 0.679402 0.690578
vt 0.673069 0.684245
vt 0.673069 0.675263
vt 0.716333 0.684245
vt 0.716333 0.666312
vt 0.703667 0.653647
vt 0.685735 0.653647
vt 0.673069 0.666312
vn 0.000000 1.000000 0.000000
vn 0.000000 1.000000 0.000000
vn 0.000000 1.000000 0.000000
vn 0.000000 1.000000 0.000000
vn 0.000000 1.000000 0.000000
vn 0.000000 1.000000 0.000000
vn 0.000000 1.000000 0.000000
vn 0.000000 1.000000 0.000000
vn 0.000000 1.000000 0.000000
vn 0.000000 1.000000 0.000000
f 1/1/1 2/2/2 3/3/3
f 4/4/4 1/1/1 3/3/3
f 5/5/5 1/1/1 4/4/4
f 6/6/6 1/1/1 5/5/5
f 7/7/7 6/6/6 5/5/5
f 8/8/8 7/7/7 5/5/5
f 9/9/9 8/8/8 5/5/5
f 10/10/10 9/9/9 5/5/5
