# Exported by s4extract — 1_mlod00_g01_part242
o 1_mlod00_g01_part242
v 0.288592 0.508820 0.137643
v 0.523653 0.508820 0.119880
v 0.507294 0.508820 0.137643
v 0.534517 0.508820 0.102057
v 0.553440 0.508820 0.066532
v 0.563755 0.508820 0.030947
v 0.568699 0.508820 -0.004578
v 0.288592 0.508820 -0.146799
v 0.563755 0.508820 -0.040164
v 0.553440 0.508820 -0.075688
v 0.534517 0.508820 -0.111274
v 0.523653 0.508820 -0.129036
v 0.507294 0.508820 -0.146799
vt 0.533870 0.179420
vt 0.542760 0.061868
vt 0.533870 0.070058
vt 0.551651 0.056418
vt 0.569431 0.046950
vt 0.587211 0.041835
vt 0.604992 0.039369
vt 0.676083 0.179420
vt 0.622772 0.041835
vt 0.640553 0.046950
vt 0.658303 0.056418
vt 0.667193 0.061868
vt 0.676053 0.070058
vn 0.000000 -1.000000 0.000000
vn 0.000000 -1.000000 0.000000
vn 0.000000 -1.000000 0.000000
vn 0.000000 -1.000000 0.000000
vn 0.000000 -1.000000 0.000000
vn 0.000000 -1.000000 0.000000
vn 0.000000 -1.000000 0.000000
vn 0.000000 -1.000000 0.000000
vn 0.000000 -1.000000 0.000000
vn 0.000000 -1.000000 0.000000
vn 0.000000 -1.000000 0.000000
vn 0.000000 -1.000000 0.000000
vn 0.000000 -1.000000 0.000000
f 1/1/1 2/2/2 3/3/3
f 1/1/1 4/4/4 2/2/2
f 1/1/1 5/5/5 4/4/4
f 1/1/1 6/6/6 5/5/5
f 1/1/1 7/7/7 6/6/6
f 8/8/8 7/7/7 1/1/1
f 8/8/8 9/9/9 7/7/7
f 8/8/8 10/10/10 9/9/9
f 8/8/8 11/11/11 10/10/10
f 8/8/8 12/12/12 11/11/11
f 8/8/8 13/13/13 12/12/12
